# Blender 5.1.1
# www.blender.org
mtllib Untitled.mtl
o Plane
v -1.992101 0.000000 2.010361
v 1.992101 0.000000 2.010361
v -1.992101 0.000000 -1.992101
v 1.992101 0.000000 -1.992101
v -1.992101 0.000000 0.009130
v 1.992101 0.000000 0.009130
v -1.992101 0.000000 1.009745
v 1.992101 0.000000 1.009745
v 1.992101 0.000000 -0.991486
v -1.992101 0.000000 -0.991486
v 0.000000 0.000000 2.010361
v -1.494076 0.000000 -1.992101
v 0.000000 0.000000 1.009745
v -0.996050 0.000000 -1.992101
v -0.996050 0.000000 0.009130
v -0.996050 0.000000 1.009745
v -0.996050 0.000000 -0.991486
v -0.996050 0.000000 2.010361
v 0.996050 0.000000 2.010361
v 0.996050 0.000000 -1.992101
v 0.996050 0.000000 0.009130
v 0.996050 0.000000 1.009745
v 0.996050 0.000000 -0.991486
v -1.494076 4.666333 -1.992101
v 0.996050 4.666333 -5.010620
v 0.996050 4.666333 -1.992101
v -1.494076 0.000000 2.010361
v 1.494076 0.000000 2.010361
v 1.494076 0.000000 -1.992101
v -0.996050 4.666333 -1.992101
v -1.494076 4.666333 -5.010620
v -0.996050 4.666333 -5.010620
v -0.661319 0.000000 -1.992101
v -1.494076 0.000000 -5.010620
v -0.996050 0.000000 -5.010620
v 0.996050 0.000000 -5.010620
v 1.494076 0.000000 -5.010620
v -0.661319 0.000000 -0.991486
v 0.661319 0.000000 -1.992101
v 0.661319 0.000000 -0.991486
v -1.494076 0.000000 -10.965030
v -0.996050 0.000000 -10.965030
v 2.951398 0.000000 -5.010620
v 2.951398 0.000000 -10.965030
v -12.987475 0.000000 -5.010620
v -12.987475 0.000000 -10.965030
v -7.240776 0.000000 -10.965030
v -4.367426 0.000000 -5.010620
v -4.367425 0.000000 -10.965030
v -12.987475 0.000000 -0.038144
v -7.136385 0.000000 -0.038144
v -4.367426 0.000000 -0.038144
v -10.114125 0.000000 -10.965030
v -9.367543 0.000000 -0.038144
v -11.550800 0.000000 -10.965030
v -11.550800 0.000000 -0.038144
v -12.269138 0.000000 -10.965030
v -12.269138 0.000000 -5.010620
v -12.269138 0.000000 -0.038144
v -4.367426 0.000000 -2.546191
v -12.987475 0.000000 -2.546191
v -12.269138 0.000000 -2.546191
v -12.987475 0.000000 -1.292167
v -12.269138 0.000000 -1.292167
v -4.367426 0.000000 -1.292167
v -7.136385 0.000000 -0.665155
v -12.987475 0.000000 -0.665155
v -9.367543 0.000000 -0.665155
v -11.550800 0.000000 -0.665155
v -12.269138 0.000000 -0.665155
v -4.367426 0.000000 -0.665155
v -5.804101 0.000000 -10.965030
v -5.804101 0.000000 -0.038144
v -5.804101 0.000000 -0.665155
v -5.085763 0.000000 -5.010620
v -5.085763 0.000000 -0.038144
v -5.085763 0.000000 -2.546191
v -5.085763 0.000000 -1.292167
v -5.085763 0.000000 -0.665155
v -5.085763 0.000000 -10.965030
v 2.951398 0.000000 -7.987825
v -12.987475 0.000000 -7.987825
v -12.269138 0.000000 -7.987825
v -12.987475 0.000000 -6.499223
v -12.269138 0.000000 -6.499223
v 2.951398 0.000000 -6.499223
v -1.494076 0.000000 -5.754921
v -12.987475 0.000000 -5.754921
v -4.367426 0.000000 -5.754921
v -12.269138 0.000000 -5.754921
v -5.085763 0.000000 -5.754921
v -0.996050 0.000000 -5.754921
v 2.951398 0.000000 -5.754921
v 0.977674 0.000000 -10.965030
v 0.977674 0.000000 -5.010620
v 0.977674 0.000000 -5.754921
v 1.964536 0.000000 -5.010620
v 1.964536 0.000000 -5.754921
v 1.964536 0.000000 -10.965030
v 2.457967 0.000000 -5.010620
v 2.457967 0.000000 -7.987825
v 2.457967 0.000000 -6.499223
v 2.457967 0.000000 -5.754921
v 2.457967 0.000000 -10.965030
v 2.951398 0.000000 -9.476427
v -12.987475 0.000000 -9.476427
v -11.909969 0.000000 -0.665155
v -11.909969 0.000000 -0.038144
v -9.088649 0.000000 -0.665155
v -9.088649 0.000000 -0.038144
v -12.269138 0.000000 -9.476427
v -8.809754 0.000000 -0.038144
v -8.809754 0.000000 -0.665155
v -8.251964 0.000000 -0.665155
v -8.251964 0.000000 -0.038144
v 2.457967 0.000000 -9.476427
v -0.996050 0.000000 -10.220728
v 2.951398 0.000000 -10.220728
v 0.977674 0.000000 -10.220728
v 1.964536 0.000000 -10.220728
v 2.457967 0.000000 -10.220728
v -1.494076 0.000000 -10.220728
v -12.987475 0.000000 -10.220728
v -7.240776 0.000000 -10.220728
v -4.367426 0.000000 -10.220728
v -10.114125 0.000000 -10.220728
v -11.550800 0.000000 -10.220728
v -12.269138 0.000000 -10.220728
v -5.804101 0.000000 -10.220728
v -5.085763 0.000000 -10.220728
v -9.367543 0.000000 8.990828
v -11.550800 0.000000 8.990828
v -11.909969 0.000000 8.990828
v -9.088649 0.000000 8.990828
v -13.967067 0.000000 8.990828
v -11.550800 0.000000 6.733585
v 0.004616 0.000000 8.990828
v 0.004616 0.000000 13.988747
v -10.114125 0.000000 17.003637
v -9.754957 0.000000 17.003637
v -13.967067 0.000000 17.003637
v 0.004616 0.000000 17.003637
v -11.909969 0.000000 6.733584
v 0.004616 0.000000 11.489787
v 0.004616 0.000000 10.240307
v -13.967067 0.000000 10.240307
v -9.088649 0.000000 9.615567
v 0.004616 0.000000 9.615567
v -9.367543 0.000000 9.615567
v -13.967067 0.000000 9.615567
v -12.040596 0.000000 8.990828
v -12.040596 0.000000 17.003637
v -12.040596 0.000000 9.615567
v -13.003832 0.000000 8.990828
v -11.909969 0.000000 2.862360
v -13.003832 0.000000 10.240307
v -13.003832 0.000000 9.615567
v -11.550800 0.000000 2.862360
v -13.003832 0.000000 17.003637
v 0.004616 0.000000 15.496192
v -13.967067 0.000000 15.496192
v -13.003832 0.000000 15.496192
v -9.754957 0.000000 16.249914
v -13.967067 0.000000 16.249914
v -12.040596 0.000000 16.249914
v -13.003832 0.000000 16.249914
v 0.004616 0.000000 16.249914
v -10.114125 0.000000 16.249914
v -5.299491 0.000000 8.990828
v -4.875171 0.000000 17.003637
v -5.299491 0.000000 9.615567
v -4.875171 0.000000 16.249914
v -2.435277 0.000000 17.003637
v -2.435277 0.000000 9.615567
v -2.435277 0.000000 16.249914
v -2.435277 0.000000 8.990828
v -1.215331 0.000000 17.003637
v -1.215331 0.000000 9.615567
v -1.215331 0.000000 16.249914
v -1.215331 0.000000 8.990828
v -0.605358 0.000000 13.988747
v -0.605358 0.000000 17.003637
v -0.605358 0.000000 11.489787
v -0.605358 0.000000 10.240307
v -0.605358 0.000000 9.615567
v -0.605358 0.000000 15.496192
v -0.605358 0.000000 16.249914
v -0.605358 0.000000 8.990828
v -11.077360 0.000000 17.003637
v -11.077360 0.000000 16.249914
v -11.558978 0.000000 8.990828
v -11.558978 0.000000 9.615567
v -11.558978 0.000000 17.003637
v -11.558978 0.000000 16.249914
v -9.594722 0.000000 8.990828
v -9.594722 0.000000 9.615567
v -11.344421 0.000000 8.990828
v -11.344421 0.000000 9.615567
v -9.603808 0.000000 -0.038144
v -9.603808 0.000000 -0.665155
v -11.296361 0.000000 -0.038144
v -11.296361 0.000000 -0.665155
v -11.909969 0.000000 7.862206
v -11.550800 0.000000 7.862206
v -11.909969 0.000000 5.447062
v -11.550800 0.000000 5.447062
v -11.550800 0.000000 2.219099
v -11.909969 0.000000 2.219099
v -11.909969 0.000000 3.505622
v -11.550800 0.000000 3.505622
v -11.550800 0.000000 1.090478
v -11.909969 0.000000 1.090478
v -11.909969 0.000000 6.090323
v -11.550800 0.000000 6.090323
v -12.324343 0.000000 2.862360
v -12.324343 0.000000 5.447062
v -12.324343 0.000000 3.505622
v -12.324343 0.000000 6.090323
v -19.984253 0.000000 2.862360
v -19.984253 0.000000 3.505622
v -12.324343 0.000000 0.136222
v -19.984253 0.000000 0.136222
v -12.324343 0.000000 8.608953
v -16.154297 0.000000 0.136222
v -14.239320 0.000000 8.608953
v -14.239320 0.000000 0.136222
v -13.281832 0.000000 8.608953
v -13.281832 0.000000 0.136222
v -13.760576 0.000000 0.136222
v -13.760576 0.000000 8.608953
v -13.999949 0.000000 0.136222
v -13.999949 0.000000 8.608953
v -19.984253 0.000000 16.983646
v -16.154297 0.000000 16.983646
v -14.239320 0.000000 16.983646
v -13.999949 0.000000 16.983646
v -24.642677 0.000000 8.608953
v -24.642677 0.000000 16.983646
v -19.984253 0.000000 3.505622
v -24.642677 0.000000 8.608953
v -24.642677 0.000000 12.796299
v -12.803087 0.000000 3.505622
v -12.803087 0.000000 8.608953
v -12.803087 0.000000 2.862360
v -12.803087 0.000000 0.136222
v -19.984253 0.000000 1.499291
v -12.324343 0.000000 1.499291
v -12.803087 0.000000 1.499291
v -12.324343 0.000000 0.817757
v -16.154297 0.000000 0.817757
v -14.239320 0.000000 0.817757
v -13.281832 0.000000 0.817757
v -13.760576 0.000000 0.817757
v -13.999949 0.000000 0.817757
v -12.803087 0.000000 0.817757
v -19.984253 0.000000 0.817757
v -18.069275 0.000000 0.136222
v -12.324343 0.000000 7.333120
v -18.069275 0.000000 16.983646
v -18.069275 0.000000 0.817757
v -19.026764 0.000000 0.136222
v -19.026764 0.000000 0.817757
v -12.803087 0.000000 7.333120
v -19.026764 0.000000 16.983646
v -19.505508 0.000000 2.862360
v -19.505508 0.000000 0.136222
v -19.505508 0.000000 1.499291
v -19.505508 0.000000 0.817757
v -19.505508 0.000000 3.505622
v -19.505508 0.000000 16.983646
v -24.642677 0.000000 10.702625
v -14.247534 0.000000 9.615567
v -14.247534 0.000000 10.240307
v -24.642677 0.000000 9.655788
v -13.999949 0.000000 9.132370
v -14.239320 0.000000 9.132370
v -24.642677 0.000000 9.132370
v -22.295410 0.000000 16.983646
v -23.469044 0.000000 16.983646
v -24.055861 0.000000 8.608953
v -24.055861 0.000000 12.796299
v -24.055861 0.000000 10.702625
v -24.055861 0.000000 9.655788
v -24.055861 0.000000 9.132370
v -24.055861 0.000000 16.983646
v -24.642677 0.000000 14.889973
v -24.055861 0.000000 14.889973
v -14.247534 0.000000 16.249914
v -24.642677 0.000000 15.936810
v -24.055861 0.000000 15.936810
v -14.247534 0.000000 15.496192
v -14.239320 0.000000 16.460228
v -16.154297 0.000000 16.460228
v -19.984253 0.000000 16.460228
v -24.642677 0.000000 16.460228
v -18.069275 0.000000 16.460228
v -19.026764 0.000000 16.460228
v -19.505508 0.000000 16.460228
v -22.295410 0.000000 16.460228
v -23.469044 0.000000 16.460228
v -24.055861 0.000000 16.460228
v -13.999949 0.000000 16.460228
v -12.324343 0.000000 6.057287
v -12.803087 0.000000 6.057287
v -19.984253 0.000000 4.143538
v -19.505508 0.000000 4.143538
v -14.239320 0.000000 7.971036
v -13.281832 0.000000 7.971036
v -13.760576 0.000000 7.971036
v -13.999949 0.000000 7.971036
v -12.803087 0.000000 7.971036
v -12.324343 0.000000 7.971036
v -12.803087 0.000000 5.453393
v -12.324343 0.000000 5.453393
v -11.909969 0.000000 3.695521
v -12.324343 0.000000 3.695521
v -11.909969 0.000000 5.206036
v -12.324343 0.000000 5.206036
v 0.004616 0.000000 12.739267
v -0.605358 0.000000 12.739267
v -0.605358 0.000000 13.364007
v 0.004616 0.000000 13.364007
v -0.605358 0.000000 13.988747
v 0.004616 0.000000 13.364007
v 0.004616 0.000000 13.988747
v -0.605358 0.000000 13.364007
v 0.976435 0.000000 15.496192
v 0.976435 0.000000 16.249914
v 0.989057 0.000000 13.988747
v 0.989057 0.000000 13.364007
v 5.027788 0.000000 15.496192
v 5.027788 0.000000 16.249914
v 0.976435 0.000000 17.007175
v 5.027788 0.000000 17.007175
v 0.976435 0.000000 12.971985
v 5.027788 0.000000 12.971985
v 0.004616 0.000000 14.120215
v -0.605358 0.000000 14.120215
v 0.004616 0.000000 15.391017
v -0.605358 0.000000 15.391017
v 3.002111 0.000000 17.007175
v 3.002112 0.000000 12.971985
v 1.989274 0.000000 12.971985
v 1.989274 0.000000 17.007175
v 4.014950 0.000000 17.007175
v 4.014950 0.000000 12.971985
v 1.482854 0.000000 15.404894
v 5.027788 0.000000 14.234089
v -13.999949 0.542682 16.460228
v -0.605358 0.000000 15.873053
v -13.967067 0.542682 16.249914
v 5.027788 0.000000 15.873053
v 5.027788 0.000000 13.603037
v 0.976435 0.000000 13.603037
v 5.027788 0.000000 13.287511
v 3.002112 0.000000 13.287511
v 1.989274 0.000000 13.287511
v 4.014950 0.000000 13.287511
v 0.976435 0.000000 13.287511
v 4.521369 0.000000 17.007175
v 4.521369 0.000000 12.971985
v 4.521369 0.000000 13.287511
v 4.774578 0.000000 16.249914
v 4.774578 0.000000 17.007175
v 4.774578 0.000000 15.873053
v 4.774578 0.000000 15.496192
v 4.774578 0.000000 12.971985
v 4.774578 0.000000 14.234089
v 4.774578 0.000000 13.603037
v 4.774578 0.000000 13.287511
v 5.027788 0.000000 16.628544
v 0.976435 0.000000 16.628544
v 3.002111 0.000000 16.628544
v 1.989274 0.000000 16.628544
v 4.014950 0.000000 16.628544
v 4.521369 0.000000 16.628544
v 4.774578 0.000000 16.628544
v 1.482854 0.000000 15.496192
v 1.482854 0.000000 12.971985
v 1.482855 0.000000 16.249914
v 1.482855 0.000000 17.007175
v 0.976435 0.000000 15.404894
v 1.482855 0.000000 15.873053
v 1.482854 0.000000 13.603037
v 1.482854 0.000000 13.287511
v 1.482855 0.000000 16.628544
v 0.976435 0.000000 13.971150
v 5.027788 0.000000 13.971150
v 1.482854 0.000000 14.038102
v 0.976435 0.000000 14.038102
v 4.774578 0.000000 13.971150
v 1.482854 0.000000 13.971150
v -1.992101 4.123651 1.009745
v -1.992101 4.123651 2.010361
v 1.494076 4.123651 2.010361
v 1.992101 4.123651 2.010361
v 1.992101 4.123651 -0.991486
v 1.992101 4.123651 -1.992101
v -1.494076 4.123651 -1.992101
v -1.992101 4.123651 -1.992101
v -1.992101 4.123651 -0.991486
v -1.992101 4.123651 0.009130
v 1.992101 4.123651 1.009745
v 1.992101 4.123651 0.009130
v -1.494076 4.123651 0.009130
v -1.494076 4.123651 1.009745
v -1.494076 4.123651 -0.991486
v -0.996050 4.123651 2.010361
v 0.000000 4.123651 2.010361
v -0.996050 4.123651 1.009745
v 0.996050 4.123651 1.009745
v 0.000000 4.123651 1.009745
v -0.996050 4.123651 -0.991486
v -0.996050 4.123651 0.009130
v -0.661319 4.123651 -1.992101
v -0.996050 4.123651 -1.992101
v -0.661319 4.123651 -0.991486
v -1.494076 4.123651 2.010361
v 0.996050 4.123651 2.010361
v 1.494076 4.123651 -1.992101
v 0.996050 4.123651 -1.992101
v 1.494076 4.123651 0.009130
v 0.996050 4.123651 0.009130
v 1.494076 4.123651 1.009745
v 1.494076 4.123651 -0.991486
v 0.996050 4.123651 -0.991486
v -0.996050 4.123651 -5.010620
v -1.494076 4.123651 -5.010620
v 1.494076 4.123651 -5.010620
v 0.996050 4.123651 -5.010620
v 0.661319 4.123651 -1.992101
v 0.661319 4.123651 -0.991486
v -0.996050 4.123651 -10.965030
v -1.494076 4.123651 -10.965030
v -1.494076 4.123651 -5.754921
v -0.996050 4.123651 -10.220728
v 2.951398 4.123651 -10.220728
v 2.951398 4.123651 -10.965030
v 0.977674 4.123651 -10.965030
v 2.457967 4.123651 -5.010620
v 2.951398 4.123651 -5.010620
v -12.987475 4.123651 -5.754921
v -12.987475 4.123651 -5.010620
v -4.367426 4.123651 -5.010620
v -12.269138 4.123651 -10.965030
v -12.987475 4.123651 -10.965030
v -5.804101 4.123651 -10.965030
v -7.240776 4.123651 -10.965030
v -5.085763 4.123651 -5.010620
v -4.367425 4.123651 -10.965030
v -4.367426 4.123651 -5.754921
v -8.251964 4.123651 -0.038144
v -7.136385 4.123651 -0.038144
v -5.085763 4.123651 -0.038144
v -4.367426 4.123651 -0.038144
v -4.367426 4.123651 -2.546191
v -7.136385 4.123651 -0.665155
v -12.987475 4.123651 -0.665155
v -12.987475 4.123651 -0.038144
v -10.114125 4.123651 -10.965030
v -8.809754 4.123651 -0.665155
v -8.251964 4.123651 -0.665155
v -9.367543 4.123651 -0.665155
v -9.367543 4.123651 -0.038144
v -11.550800 4.123651 -10.965030
v -11.909969 4.123651 -0.038144
v -11.550800 4.123651 -0.038144
v -11.550800 4.123651 -0.665155
v -12.269138 4.123651 -5.010620
v -12.269138 4.123651 -0.038144
v -12.269138 4.123651 -0.665155
v -12.269138 4.123651 -5.754921
v -4.367426 4.123651 -1.292167
v -12.987475 4.123651 -2.546191
v -12.269138 4.123651 -2.546191
v -5.085763 4.123651 -2.546191
v -12.987475 4.123651 -1.292167
v -12.269138 4.123651 -1.292167
v -4.367426 4.123651 -0.665155
v -5.085763 4.123651 -1.292167
v -11.909969 4.123651 -0.665155
v -8.809754 4.123651 -0.038144
v -5.085763 4.123651 -0.665155
v -5.085763 4.123651 -10.965030
v -5.804101 4.123651 -0.038144
v -5.804101 4.123651 -0.665155
v -5.085763 4.123651 -5.754921
v 2.951398 4.123651 -6.499223
v 2.951398 4.123651 -7.987825
v -12.987475 4.123651 -9.476427
v -12.987475 4.123651 -7.987825
v -12.269138 4.123651 -9.476427
v -12.269138 4.123651 -7.987825
v 2.457967 4.123651 -7.987825
v -12.987475 4.123651 -6.499223
v -12.269138 4.123651 -6.499223
v 2.951398 4.123651 -5.754921
v 2.457967 4.123651 -6.499223
v -0.996050 4.123651 -5.754921
v 2.457967 4.123651 -5.754921
v 1.964536 4.123651 -10.965030
v 0.977674 4.123651 -10.220728
v 0.977674 4.123651 -5.010620
v 0.977674 4.123651 -5.754921
v 1.964536 4.123651 -5.010620
v 1.964536 4.123651 -5.754921
v 2.457967 4.123651 -10.965030
v 1.964536 4.123651 -10.220728
v 2.457967 4.123651 -10.220728
v 2.951398 4.123651 -9.476427
v -12.987475 4.123651 -10.220728
v -12.269138 4.123651 -10.220728
v 2.457967 4.123651 -9.476427
v -9.088649 4.123651 -0.665155
v -9.088649 4.123651 -0.038144
v -1.494076 4.123651 -10.220728
v -7.240776 4.123651 -10.220728
v -4.367426 4.123651 -10.220728
v -10.114125 4.123651 -10.220728
v -11.550800 4.123651 -10.220728
v -5.804101 4.123651 -10.220728
v -5.085763 4.123651 -10.220728
v -9.367543 4.123651 8.990828
v -9.088649 4.123651 8.990828
v -11.550800 4.123651 1.090478
v -11.909969 4.123651 7.862206
v -11.909969 4.123651 8.990828
v -9.088649 4.123651 9.615567
v -11.909969 4.123651 6.090323
v -11.909969 4.123651 6.733584
v -13.003832 4.123651 8.990828
v -13.967067 4.123651 8.990828
v 0.004616 4.123651 9.615567
v 0.004616 4.123651 8.990828
v -5.299491 4.123651 8.990828
v -0.605358 4.123651 13.988747
v 0.004616 4.123651 13.988747
v -10.114125 4.123651 17.003637
v -9.754957 4.123651 17.003637
v -11.077360 4.123651 17.003637
v -0.605358 4.123651 17.003637
v 0.004616 4.123651 17.003637
v -0.605358 4.123651 13.364007
v -0.605358 4.123651 12.739267
v -9.754957 4.123651 16.249914
v -13.967067 4.123651 16.249914
v -13.967067 4.123651 17.003637
v -11.550800 4.123651 8.990828
v -11.550800 4.123651 7.862206
v 0.004616 4.123651 12.739267
v 0.004616 4.123651 11.489787
v -0.605358 4.123651 11.489787
v -11.550800 4.123651 6.733585
v -11.550800 4.123651 6.090323
v 0.004616 4.123651 10.240307
v -13.967067 4.123651 9.615567
v -13.967067 4.123651 10.240307
v -0.605358 4.123651 10.240307
v -13.003832 4.123651 10.240307
v -9.367543 4.123651 9.615567
v -0.605358 4.123651 9.615567
v -13.003832 4.123651 9.615567
v -11.558978 4.123651 8.990828
v -12.040596 4.123651 8.990828
v -13.003832 4.123651 17.003637
v -12.040596 4.123651 17.003637
v -11.558978 4.123651 9.615567
v -12.040596 4.123651 9.615567
v -12.040596 4.123651 16.249914
v -11.909969 4.123651 5.447062
v -11.909969 4.123651 2.862360
v -11.550800 4.123651 2.862360
v -13.003832 4.123651 16.249914
v 0.004616 4.123651 15.496192
v -13.967067 4.123651 15.496192
v -13.003832 4.123651 15.496192
v -0.605358 4.123651 15.496192
v 0.004616 4.123651 16.249914
v -10.114125 4.123651 16.249914
v -11.077360 4.123651 16.249914
v -0.605358 4.123651 16.249914
v -2.435277 4.123651 8.990828
v -4.875171 4.123651 17.003637
v -5.299491 4.123651 9.615567
v -4.875171 4.123651 16.249914
v -2.435277 4.123651 17.003637
v -2.435277 4.123651 9.615567
v -2.435277 4.123651 16.249914
v -1.215331 4.123651 8.990828
v -1.215331 4.123651 17.003637
v -1.215331 4.123651 9.615567
v -1.215331 4.123651 16.249914
v -0.605358 4.123651 8.990828
v 0.004616 4.123651 13.364007
v -0.605358 4.123651 15.873053
v -11.558978 4.123651 17.003637
v -11.558978 4.123651 16.249914
v -9.594722 4.123651 8.990828
v -9.594722 4.123651 9.615567
v -11.344421 4.123651 8.990828
v -11.344421 4.123651 9.615567
v -9.603808 4.123651 -0.665155
v -9.603808 4.123651 -0.038144
v -11.296361 4.123651 -0.665155
v -11.296361 4.123651 -0.038144
v -11.909969 4.123651 2.219099
v -11.550800 4.123651 5.447062
v -11.550800 4.123651 2.219099
v -11.909969 4.123651 1.090478
v -11.909969 4.123651 3.505622
v -11.550800 4.123651 3.505622
v -12.324343 4.123651 5.447062
v -12.324343 4.123651 6.090323
v -12.324343 4.123651 2.862360
v -12.324343 4.123651 3.505622
v -19.984253 4.123651 2.862360
v -19.984253 4.123651 3.505622
v -12.803087 4.123651 3.505622
v -19.505508 4.123651 2.862360
v -19.505508 4.123651 0.136222
v -19.984253 4.123651 0.136222
v -19.984253 4.123651 1.499291
v -12.324343 4.123651 0.817757
v -12.324343 4.123651 0.136222
v -12.803087 4.123651 8.608953
v -12.324343 4.123651 8.608953
v -14.239320 4.123651 0.136222
v -16.154297 4.123651 0.136222
v -16.154297 4.123651 0.817757
v -13.999949 4.123651 0.136222
v -14.239320 4.123651 7.971036
v -14.239320 4.123651 8.608953
v -14.239320 4.123651 0.817757
v -13.760576 4.123651 8.608953
v -13.281832 4.123651 8.608953
v -12.803087 4.123651 0.136222
v -13.281832 4.123651 0.136222
v -13.281832 4.123651 7.971036
v -13.281832 4.123651 0.817757
v -13.760576 4.123651 0.136222
v -13.999949 4.123651 8.608953
v -13.760576 4.123651 0.817757
v -13.760576 4.123651 7.971036
v -13.999949 4.123651 0.817757
v -13.999949 4.123651 7.971036
v -18.069275 4.123651 16.983646
v -16.154297 4.123651 16.983646
v -14.239320 4.123651 16.983646
v -13.999949 4.123651 16.983646
v -13.999949 4.123651 9.132370
v -14.239320 4.123651 16.460228
v -16.154297 4.123651 16.460228
v -19.984253 4.123651 16.460228
v -19.984253 4.123651 16.983646
v -24.642677 4.123651 16.460228
v -24.642677 4.123651 16.983646
v -22.295410 4.123651 16.983646
v -24.055861 4.123651 8.608953
v -24.642677 4.123651 8.608953
v -24.642677 4.123651 10.702625
v -24.642677 4.123651 12.796299
v -24.055861 4.123651 12.796299
v -12.803087 4.123651 2.862360
v -12.803087 4.123651 7.971036
v -12.803087 4.123651 0.817757
v -19.984253 4.123651 0.817757
v -12.324343 4.123651 1.499291
v -12.803087 4.123651 1.499291
v -19.505508 4.123651 1.499291
v -19.505508 4.123651 0.817757
v -18.069275 4.123651 0.136222
v -19.026764 4.123651 16.983646
v -18.069275 4.123651 0.817757
v -18.069275 4.123651 16.460228
v -19.026764 4.123651 0.136222
v -19.026764 4.123651 0.817757
v -19.505508 4.123651 16.983646
v -19.026764 4.123651 16.460228
v -19.505508 4.123651 3.505622
v -19.505508 4.123651 16.460228
v -24.642677 4.123651 9.655788
v -24.055861 4.123651 10.702625
v -14.247534 4.123651 16.249914
v -24.642677 4.123651 9.132370
v -14.247534 4.123651 15.496192
v -24.055861 4.123651 9.655788
v -14.247534 4.123651 9.615567
v -14.247534 4.123651 10.240307
v -14.239320 4.123651 9.132370
v -24.055861 4.123651 9.132370
v -23.469044 4.123651 16.983646
v -22.295410 4.123651 16.460228
v -24.055861 4.123651 16.983646
v -23.469044 4.123651 16.460228
v -24.055861 4.123651 16.460228
v -24.642677 4.123651 14.889973
v -24.055861 4.123651 14.889973
v -24.642677 4.123651 15.936810
v -24.055861 4.123651 15.936810
v -13.999949 4.123651 16.460228
v -12.324343 4.123651 7.333120
v -12.324343 4.123651 6.057287
v -12.803087 4.123651 7.333120
v -12.803087 4.123651 5.453393
v -12.803087 4.123651 6.057287
v -12.324343 4.123651 7.971036
v -19.984253 4.123651 4.143538
v -19.505508 4.123651 4.143538
v -12.324343 4.123651 5.453393
v -12.324343 4.123651 3.695521
v -11.909969 4.123651 3.695521
v -11.909969 4.123651 5.206036
v -12.324343 4.123651 5.206036
v 0.976435 4.123651 15.873053
v 0.976435 4.123651 15.496192
v 0.976435 4.123651 16.249914
v 0.989057 4.123651 13.988747
v 0.989057 4.123651 13.364007
v 5.027788 4.123651 15.873053
v 5.027788 4.123651 15.496192
v 1.482854 4.123651 15.496192
v 4.774578 4.123651 16.249914
v 5.027788 4.123651 16.249914
v 4.774578 4.123651 17.007175
v 5.027788 4.123651 17.007175
v 5.027788 4.123651 16.628544
v 0.976435 4.123651 16.628544
v 0.976435 4.123651 17.007175
v 1.482854 4.123651 12.971985
v 0.976435 4.123651 12.971985
v 1.482854 4.123651 15.404894
v 5.027788 4.123651 13.287511
v 5.027788 4.123651 12.971985
v -0.605358 4.123651 14.120215
v 0.004616 4.123651 14.120215
v -0.605358 4.123651 15.391017
v 0.004616 4.123651 15.391017
v 1.989274 4.123651 17.007175
v 3.002111 4.123651 17.007175
v 4.014950 4.123651 12.971985
v 3.002112 4.123651 12.971985
v 3.002112 4.123651 13.287511
v 3.002111 4.123651 16.628544
v 1.989274 4.123651 12.971985
v 1.482855 4.123651 17.007175
v 1.989274 4.123651 13.287511
v 1.989274 4.123651 16.628544
v 4.014950 4.123651 17.007175
v 4.521369 4.123651 12.971985
v 4.014950 4.123651 16.628544
v 4.014950 4.123651 13.287511
v 5.027788 4.123651 14.234089
v 0.976435 4.123651 15.404894
v 4.774578 4.123651 15.873053
v 0.976435 4.123651 13.287511
v 0.976435 4.123651 13.603037
v 1.482854 4.123651 13.603037
v 5.027788 4.123651 13.603037
v 1.482854 4.123651 13.287511
v 4.521369 4.123651 13.287511
v 4.521369 4.123651 17.007175
v 4.774578 4.123651 12.971985
v 4.774578 4.123651 13.287511
v 4.521369 4.123651 16.628544
v 4.774578 4.123651 15.496192
v 4.774578 4.123651 14.234089
v 4.774578 4.123651 13.603037
v 4.774578 4.123651 16.628544
v 4.774578 4.123651 13.971150
v 1.482855 4.123651 16.628544
v 1.482855 4.123651 16.249914
v 1.482855 4.123651 15.873053
v 1.482854 4.123651 13.971150
v 0.976435 4.123651 13.971150
v 5.027788 4.123651 13.971150
v 1.482854 4.123651 14.038102
v 0.976435 4.123651 14.038102
v 1.494076 4.666333 -1.992101
v 1.494076 4.666333 -5.010620
v -0.996050 4.666333 -10.965030
v -1.494076 4.666333 -10.965030
v -1.494076 4.666333 -5.754921
v -0.996050 4.666333 -10.220728
v 2.951398 4.666333 -10.220728
v 2.951398 4.666333 -10.965030
v 0.977674 4.666333 -10.965030
v 2.457967 4.666333 -5.010620
v 2.951398 4.666333 -5.010620
v -12.987475 4.666333 -5.754921
v -12.987475 4.666333 -5.010620
v -4.367426 4.666333 -5.010620
v -12.269138 4.666333 -10.965030
v -12.987475 4.666333 -10.965030
v -5.804101 4.666333 -10.965030
v -7.240776 4.666333 -10.965030
v -5.085763 4.666333 -5.010620
v -4.367425 4.666333 -10.965030
v -4.367426 4.666333 -5.754921
v -8.251964 4.666333 -0.038144
v -7.136385 4.666333 -0.038144
v -5.085763 4.666333 -0.038144
v -4.367426 4.666333 -0.038144
v -4.367426 4.666333 -2.546191
v -7.136385 4.666333 -0.665155
v -12.987475 4.666333 -0.665155
v -12.987475 4.666333 -0.038144
v -10.114125 4.666333 -10.965030
v -8.809754 4.666333 -0.665155
v -8.251964 4.666333 -0.665155
v -9.367543 4.666333 -0.665155
v -9.367543 4.666333 -0.038144
v -11.550800 4.666333 -10.965030
v -11.909969 4.666333 -0.038144
v -11.550800 4.666333 -0.038144
v -11.550800 4.666333 -0.665155
v -12.269138 4.666333 -5.010620
v -12.269138 4.666333 -0.038144
v -12.269138 4.666333 -0.665155
v -12.269138 4.666333 -5.754921
v -4.367426 4.666333 -1.292167
v -12.987475 4.666333 -2.546191
v -12.269138 4.666333 -2.546191
v -5.085763 4.666333 -2.546191
v -12.987475 4.666333 -1.292167
v -12.269138 4.666333 -1.292167
v -4.367426 4.666333 -0.665155
v -5.085763 4.666333 -1.292167
v -11.909969 4.666333 -0.665155
v -8.809754 4.666333 -0.038144
v -5.085763 4.666333 -0.665155
v -5.085763 4.666333 -10.965030
v -5.804101 4.666333 -0.038144
v -5.804101 4.666333 -0.665155
v -5.085763 4.666333 -5.754921
v 2.951398 4.666333 -6.499223
v 2.951398 4.666333 -7.987825
v -12.987475 4.666333 -9.476427
v -12.987475 4.666333 -7.987825
v -12.269138 4.666333 -9.476427
v -12.269138 4.666333 -7.987825
v 2.457967 4.666333 -7.987825
v -12.987475 4.666333 -6.499223
v -12.269138 4.666333 -6.499223
v 2.951398 4.666333 -5.754921
v 2.457967 4.666333 -6.499223
v -0.996050 4.666333 -5.754921
v 2.457967 4.666333 -5.754921
v 1.964536 4.666333 -10.965030
v 0.977674 4.666333 -10.220728
v 0.977674 4.666333 -5.010620
v 0.977674 4.666333 -5.754921
v 1.964536 4.666333 -5.010620
v 1.964536 4.666333 -5.754921
v 2.457967 4.666333 -10.965030
v 1.964536 4.666333 -10.220728
v 2.457967 4.666333 -10.220728
v 2.951398 4.666333 -9.476427
v -12.987475 4.666333 -10.220728
v -12.269138 4.666333 -10.220728
v 2.457967 4.666333 -9.476427
v -9.088649 4.666333 -0.665155
v -9.088649 4.666333 -0.038144
v -1.494076 4.666333 -10.220728
v -7.240776 4.666333 -10.220728
v -4.367426 4.666333 -10.220728
v -10.114125 4.666333 -10.220728
v -11.550800 4.666333 -10.220728
v -5.804101 4.666333 -10.220728
v -5.085763 4.666333 -10.220728
v -9.367543 4.666333 8.990828
v -9.088649 4.666333 8.990828
v -11.550800 4.666333 1.090478
v -11.909969 4.666333 7.862206
v -11.909969 4.666333 8.990828
v -9.088649 4.666333 9.615567
v -11.909969 4.666333 6.090323
v -11.909969 4.666333 6.733584
v -13.003832 4.666333 8.990828
v -13.967067 4.666333 8.990828
v 0.004616 4.666333 9.615567
v 0.004616 4.666333 8.990828
v -5.299491 4.666333 8.990828
v -0.605358 4.666333 13.988747
v 0.004616 4.666333 13.988747
v -10.114125 4.666333 17.003637
v -9.754957 4.666333 17.003637
v -11.077360 4.666333 17.003637
v -0.605358 4.666333 17.003637
v 0.004616 4.666333 17.003637
v -0.605358 4.666333 13.364007
v -0.605358 4.666333 12.739267
v -9.754957 4.666333 16.249914
v -13.967067 4.666333 16.249914
v -13.967067 4.666333 17.003637
v -11.550800 4.666333 8.990828
v -11.550800 4.666333 7.862206
v 0.004616 4.666333 12.739267
v 0.004616 4.666333 11.489787
v -0.605358 4.666333 11.489787
v -11.550800 4.666333 6.733585
v -11.550800 4.666333 6.090323
v 0.004616 4.666333 10.240307
v -13.967067 4.666333 9.615567
v -13.967067 4.666333 10.240307
v -0.605358 4.666333 10.240307
v -13.003832 4.666333 10.240307
v -9.367543 4.666333 9.615567
v -0.605358 4.666333 9.615567
v -13.003832 4.666333 9.615567
v -11.558978 4.666333 8.990828
v -12.040596 4.666333 8.990828
v -13.003832 4.666333 17.003637
v -12.040596 4.666333 17.003637
v -11.558978 4.666333 9.615567
v -12.040596 4.666333 9.615567
v -12.040596 4.666333 16.249914
v -11.909969 4.666333 5.447062
v -11.909969 4.666333 2.862360
v -11.550800 4.666333 2.862360
v -13.003832 4.666333 16.249914
v 0.004616 4.666333 15.873053
v 0.004616 4.666333 15.496192
v -13.967067 4.666333 15.496192
v -13.003832 4.666333 15.496192
v -0.605358 4.666333 15.496192
v 0.004616 4.666333 16.249914
v -10.114125 4.666333 16.249914
v -11.077360 4.666333 16.249914
v -0.605358 4.666333 16.249914
v -2.435277 4.666333 8.990828
v -4.875171 4.666333 17.003637
v -5.299491 4.666333 9.615567
v -4.875171 4.666333 16.249914
v -2.435277 4.666333 17.003637
v -2.435277 4.666333 9.615567
v -2.435277 4.666333 16.249914
v -1.215331 4.666333 8.990828
v -1.215331 4.666333 17.003637
v -1.215331 4.666333 9.615567
v -1.215331 4.666333 16.249914
v -0.605358 4.666333 8.990828
v 0.004616 4.666333 13.364007
v -0.605358 4.666333 15.873053
v -11.558978 4.666333 17.003637
v -11.558978 4.666333 16.249914
v -9.594722 4.666333 8.990828
v -9.594722 4.666333 9.615567
v -11.344421 4.666333 8.990828
v -11.344421 4.666333 9.615567
v -9.603808 4.666333 -0.665155
v -9.603808 4.666333 -0.038144
v -11.296361 4.666333 -0.665155
v -11.296361 4.666333 -0.038144
v -11.909969 4.666333 2.219099
v -11.550800 4.666333 5.447062
v -11.550800 4.666333 2.219099
v -11.909969 4.666333 1.090478
v -11.909969 4.666333 3.505622
v -11.550800 4.666333 3.505622
v -12.324343 4.666333 2.862360
v -12.324343 4.666333 3.505622
v -12.324343 4.666333 6.090323
v -12.324343 4.666333 5.447062
v -19.984253 4.666333 2.862360
v -19.984253 4.666333 3.505622
v -12.803087 4.666333 3.505622
v -19.505508 4.666333 2.862360
v -19.505508 4.666333 0.136222
v -19.984253 4.666333 0.136222
v -19.984253 4.666333 1.499291
v -12.324343 4.666333 0.817757
v -12.324343 4.666333 0.136222
v -12.803087 4.666333 8.608953
v -12.324343 4.666333 8.608953
v -14.239320 4.666333 0.136222
v -16.154297 4.666333 0.136222
v -16.154297 4.666333 0.817757
v -13.999949 4.666333 0.136222
v -14.239320 4.666333 7.971036
v -14.239320 4.666333 8.608953
v -14.239320 4.666333 0.817757
v -13.760576 4.666333 8.608953
v -13.281832 4.666333 8.608953
v -12.803087 4.666333 0.136222
v -13.281832 4.666333 0.136222
v -13.281832 4.666333 7.971036
v -13.281832 4.666333 0.817757
v -13.760576 4.666333 0.136222
v -13.999949 4.666333 8.608953
v -13.760576 4.666333 0.817757
v -13.760576 4.666333 7.971036
v -13.999949 4.666333 0.817757
v -13.999949 4.666333 7.971036
v -18.069275 4.666333 16.983646
v -16.154297 4.666333 16.983646
v -14.239320 4.666333 16.983646
v -13.999949 4.666333 16.983646
v -13.999949 4.666333 9.132370
v -14.239320 4.666333 16.460228
v -16.154297 4.666333 16.460228
v -19.984253 4.666333 16.460228
v -19.984253 4.666333 16.983646
v -24.642677 4.666333 16.460228
v -24.642677 4.666333 16.983646
v -22.295410 4.666333 16.983646
v -24.055861 4.666333 8.608953
v -24.642677 4.666333 8.608953
v -24.642677 4.666333 10.702625
v -24.642677 4.666333 12.796299
v -24.055861 4.666333 12.796299
v -12.803087 4.666333 2.862360
v -12.803087 4.666333 7.971036
v -12.803087 4.666333 0.817757
v -19.984253 4.666333 0.817757
v -12.324343 4.666333 1.499291
v -12.803087 4.666333 1.499291
v -19.505508 4.666333 1.499291
v -19.505508 4.666333 0.817757
v -18.069275 4.666333 0.136222
v -19.026764 4.666333 16.983646
v -18.069275 4.666333 0.817757
v -18.069275 4.666333 16.460228
v -19.026764 4.666333 0.136222
v -19.026764 4.666333 0.817757
v -19.505508 4.666333 16.983646
v -19.026764 4.666333 16.460228
v -19.505508 4.666333 3.505622
v -19.505508 4.666333 16.460228
v -24.642677 4.666333 9.655788
v -24.055861 4.666333 10.702625
v -14.247534 4.666333 16.249914
v -24.642677 4.666333 9.132370
v -14.247534 4.666333 15.496192
v -24.055861 4.666333 9.655788
v -14.247534 4.666333 9.615567
v -14.247534 4.666333 10.240307
v -14.239320 4.666333 9.132370
v -24.055861 4.666333 9.132370
v -23.469044 4.666333 16.983646
v -22.295410 4.666333 16.460228
v -24.055861 4.666333 16.983646
v -23.469044 4.666333 16.460228
v -24.055861 4.666333 16.460228
v -24.642677 4.666333 14.889973
v -24.055861 4.666333 14.889973
v -24.642677 4.666333 15.936810
v -24.055861 4.666333 15.936810
v -13.999949 4.666333 16.460228
v -12.324343 4.666333 7.333120
v -12.324343 4.666333 6.057287
v -12.803087 4.666333 7.333120
v -12.803087 4.666333 5.453393
v -12.803087 4.666333 6.057287
v -12.324343 4.666333 7.971036
v -19.984253 4.666333 4.143538
v -19.505508 4.666333 4.143538
v -12.324343 4.666333 5.453393
v -12.324343 4.666333 3.695521
v -11.909969 4.666333 3.695521
v -11.909969 4.666333 5.206036
v -12.324343 4.666333 5.206036
v 0.976435 4.666333 15.873053
v 0.976435 4.666333 15.496192
v 0.976435 4.666333 16.249914
v 0.989057 4.666333 13.364007
v 0.989057 4.666333 13.988747
v 0.976435 4.666333 16.628544
v 0.976435 4.666333 17.007175
v -0.605358 4.666333 14.120215
v 0.004616 4.666333 14.120215
v -0.605358 4.666333 15.391017
v 0.004616 4.666333 15.391017
v 0.976435 4.666333 15.404894
v 0.976435 4.666333 13.287511
v 0.976435 4.666333 13.603037
v 0.976435 4.666333 12.971985
v 0.976435 4.666333 13.971150
v 0.976435 4.666333 14.038102
vn -1.0000 -0.0000 -0.0000
vn -0.0000 -0.0000 1.0000
vn 1.0000 -0.0000 -0.0000
vn -0.0000 -0.0000 -1.0000
vn 0.9992 -0.0000 -0.0390
vn -0.7386 -0.0000 -0.6742
vn 0.7389 -0.0000 0.6738
vn -0.0000 1.0000 -0.0000
vn -0.9999 -0.0000 -0.0170
vn 0.9977 -0.0000 -0.0679
vn -0.9880 -0.0000 -0.1545
vt 0.000000 0.000000
vt 0.125000 1.000000
vt 0.875000 0.750000
vt 1.000000 0.750000
vt 1.000000 1.000000
vt 0.875000 1.000000
vt 0.875000 0.250000
vt 1.000000 0.250000
vt 1.000000 0.500000
vt 0.875000 0.500000
vt 0.875000 0.000000
vt 1.000000 0.000000
vt 0.000000 0.750000
vt 0.125000 0.750000
vt 0.000000 1.000000
vt 0.250000 0.000000
vt 0.500000 0.000000
vt 0.500000 0.250000
vt 0.250000 0.250000
vt 0.000000 0.500000
vt 0.125000 0.500000
vt 0.250000 0.750000
vt 0.250000 1.000000
vt 0.125000 0.250000
vt 0.250000 0.500000
vt 0.125000 0.000000
vt 0.000000 0.250000
vt 0.750000 0.000000
vt 0.750000 0.250000
vt 0.625000 0.750000
vt 0.750000 0.750000
vt 0.750000 1.000000
vt 0.625000 1.000000
vt 0.750000 0.500000
vt 0.375000 0.750000
vt 0.375000 1.000000
vt 0.125000 1.000000
s 0
f 354/1/1 387/1/1 774/1/1 756/1/1
f 116/1/1 101/1/1 494/1/1 513/1/1
f 171/1/2 174/1/2 587/1/2 584/1/2
f 217/1/1 316/1/1 710/1/1 615/1/1
f 111/1/3 128/1/3 512/1/3 492/1/3
f 170/1/2 173/1/2 586/1/2 583/1/2
f 315/1/3 209/1/3 610/1/3 711/1/3
f 38/1/3 33/1/3 415/1/3 417/1/3
f 380/1/3 383/1/3 772/1/3 771/1/3
f 123/1/1 106/1/1 490/1/1 511/1/1
f 244/1/1 242/1/1 618/1/1 663/1/1
f 316/1/2 315/1/2 711/1/2 710/1/2
f 81/1/3 105/1/3 510/1/3 489/1/3
f 221/1/4 245/1/4 636/1/4 624/1/4
f 314/1/4 313/1/4 704/1/4 709/1/4
f 347/1/4 382/1/4 753/1/4 731/1/4
f 172/1/4 163/1/4 545/1/4 585/1/4
f 303/1/3 314/1/3 709/1/3 702/1/3
f 383/1/3 378/1/3 721/1/3 772/1/3
f 147/1/2 171/1/2 584/1/2 528/1/2
f 227/1/2 243/1/2 625/1/2 635/1/2
f 392/1/3 384/1/3 757/1/3 773/1/3
f 101/1/1 102/1/1 498/1/1 494/1/1
f 140/1/2 170/1/2 583/1/2 539/1/2
f 292/2/5 288/2/5 683/2/5 651/2/5
f 384/1/3 385/1/3 759/1/3 757/1/3
f 102/1/1 103/1/1 500/1/1 498/1/1
f 176/1/4 169/1/4 535/1/4 582/1/4
f 271/1/1 241/1/1 661/1/1 660/1/1
f 310/1/4 307/1/4 631/1/4 645/1/4
f 386/1/3 380/1/3 771/1/3 770/1/3
f 44/1/4 104/1/4 507/1/4 438/1/4
f 311/1/4 308/1/4 638/1/4 664/1/4
f 103/1/4 98/1/4 506/1/4 500/1/4
f 308/1/4 309/1/4 643/1/4 638/1/4
f 4/1/4 29/1/4 420/1/4 398/1/4
f 385/1/2 357/1/2 746/1/2 759/1/2
f 97/1/2 100/1/2 440/1/2 505/1/2
f 163/1/4 168/1/4 579/1/4 545/1/4
f 309/1/4 310/1/4 645/1/4 643/1/4
f 19/1/2 28/1/2 395/1/2 419/1/2
f 168/1/4 190/1/4 580/1/4 579/1/4
f 278/1/2 233/1/2 654/1/2 657/1/2
f 333/1/2 381/1/2 745/1/2 728/1/2
f 165/1/4 166/1/4 573/1/4 569/1/4
f 295/1/1 238/1/1 656/1/1 655/1/1
f 223/1/3 312/1/3 706/1/3 626/1/3
f 104/1/4 99/1/4 501/1/4 507/1/4
f 263/1/1 311/1/1 664/1/1 703/1/1
f 343/1/4 379/1/4 729/1/4 744/1/4
f 98/1/4 96/1/4 504/1/4 506/1/4
f 142/1/3 167/1/3 578/1/3 542/1/3
f 220/1/6 237/1/6 659/1/6 617/1/6
f 374/1/4 386/1/4 770/1/4 747/1/4
f 95/1/2 97/1/2 505/1/2 503/1/2
f 166/1/3 162/1/3 576/1/3 573/1/3
f 280/1/7 305/1/7 707/1/7 658/1/7
f 1/1/2 27/1/2 418/1/2 394/1/2
f 375/1/4 373/1/4 743/1/4 750/1/4
f 96/1/1 95/1/1 503/1/1 504/1/1
f 275/1/3 232/1/3 641/1/3 650/1/3
f 305/1/2 306/1/2 708/1/2 707/1/2
f 373/1/4 374/1/4 747/1/4 743/1/4
f 160/2/4 186/2/4 577/2/4 574/2/4
f 235/1/2 236/1/2 649/1/2 648/1/2
f 306/1/3 269/1/3 679/1/3 708/1/3
f 21/1/1 22/1/1 411/1/1 423/1/1
f 204/2/8 203/2/8 133/2/8 132/2/8
f 376/1/4 375/1/4 750/1/4 764/1/4
f 99/1/4 94/1/4 439/1/4 501/1/4
f 162/1/4 161/1/4 575/1/4 576/1/4
f 234/1/2 235/1/2 648/1/2 647/1/2
f 377/1/4 376/1/4 764/1/4 768/1/4
f 204/1/3 136/1/3 553/1/3 549/1/3
f 259/1/2 234/1/2 647/1/2 646/1/2
f 23/1/1 21/1/1 423/1/1 426/1/1
f 92/1/4 87/1/4 435/1/4 499/1/4
f 304/1/1 263/1/1 703/1/1 705/1/1
f 363/1/1 377/1/1 768/1/1 722/1/1
f 312/1/3 258/1/3 701/1/3 706/1/3
f 328/1/1 372/1/1 727/1/1 716/1/1
f 87/1/4 89/1/4 451/1/4 435/1/4
f 313/1/1 304/1/1 705/1/1 704/1/1
f 334/1/3 371/1/3 726/1/3 725/1/3
f 89/1/4 91/1/4 487/1/4 451/1/4
f 229/1/4 231/1/4 630/1/4 640/1/4
f 365/1/1 363/1/1 722/1/1 754/1/1
f 43/1/3 93/1/3 497/1/3 441/1/3
f 258/1/3 303/1/3 702/1/3 701/1/3
f 11/1/2 19/1/2 419/1/2 409/1/2
f 35/1/3 92/1/3 499/1/3 427/1/3
f 143/1/1 203/1/1 526/1/1 530/1/1
f 302/2/4 292/2/4 651/2/4 700/2/4
f 15/1/3 17/1/3 413/1/3 414/1/3
f 368/1/1 366/1/1 765/1/1 766/1/1
f 90/1/3 85/1/3 496/1/3 472/1/3
f 156/1/3 157/1/3 562/1/3 559/1/3
f 232/1/2 230/1/2 634/1/2 641/1/2
f 292/1/4 293/1/4 652/1/4 651/1/4
f 366/1/1 365/1/1 754/1/1 765/1/1
f 84/1/1 88/1/1 442/1/1 495/1/1
f 141/1/2 159/1/2 565/1/2 547/1/2
f 228/1/4 229/1/4 640/1/4 637/1/4
f 298/1/4 294/1/4 653/1/4 680/1/4
f 16/1/3 15/1/3 414/1/3 410/1/3
f 391/2/3 369/2/3 767/2/3 769/2/3
f 293/1/4 296/1/4 674/1/4 652/1/4
f 370/1/1 369/1/1 767/1/1 763/1/1
f 157/1/2 153/1/2 568/1/2 562/1/2
f 296/1/4 297/1/4 678/1/4 674/1/4
f 27/1/2 18/1/2 408/1/2 418/1/2
f 93/1/3 86/1/3 488/1/3 497/1/3
f 151/1/4 154/1/4 531/1/4 564/1/4
f 245/1/4 228/1/4 637/1/4 636/1/4
f 297/1/4 298/1/4 680/1/4 678/1/4
f 17/1/2 38/1/2 417/1/2 413/1/2
f 355/2/4 370/2/4 763/2/4 732/2/4
f 85/1/3 83/1/3 493/1/3 496/1/3
f 230/1/2 227/1/2 635/1/2 634/1/2
f 13/1/4 16/1/4 410/1/4 412/1/4
f 369/2/2 353/2/2 758/2/2 767/2/2
f 82/1/1 84/1/1 495/1/1 491/1/1
f 294/1/4 299/1/4 692/1/4 653/1/4
f 153/1/2 192/1/2 567/1/2 568/1/2
f 307/1/1 225/1/1 632/1/1 631/1/1
f 299/1/4 300/1/4 694/1/4 692/1/4
f 33/1/4 14/1/4 416/1/4 415/1/4
f 367/2/2 336/2/2 733/2/2 762/2/2
f 159/1/2 152/1/2 566/1/2 565/1/2
f 231/1/4 226/1/4 627/1/4 630/1/4
f 300/1/4 301/1/4 695/1/4 694/1/4
f 83/1/3 111/1/3 492/1/3 493/1/3
f 191/1/4 151/1/4 564/1/4 563/1/4
f 236/1/3 302/1/3 700/1/3 649/1/3
f 360/1/2 364/1/2 724/1/2 761/1/2
f 106/1/1 82/1/1 491/1/1 490/1/1
f 226/1/4 224/1/4 628/1/4 627/1/4
f 301/1/3 290/1/3 699/1/3 695/1/3
f 362/2/3 361/2/3 749/2/3 760/2/3
f 86/1/3 81/1/3 489/1/3 488/1/3
f 149/1/2 147/1/2 528/1/2 560/1/2
f 243/1/2 223/1/2 626/1/2 625/1/2
f 289/1/1 295/1/1 655/1/1 698/1/1
f 22/1/4 13/1/4 412/1/4 411/1/4
f 78/1/1 79/1/1 483/1/1 480/1/1
f 249/1/3 221/1/3 624/1/3 623/1/3
f 161/1/4 291/1/4 685/1/4 575/1/4
f 370/2/4 362/2/4 760/2/4 763/2/4
f 77/1/1 78/1/1 480/1/1 476/1/1
f 135/1/1 150/1/1 556/1/1 532/1/1
f 246/1/1 219/1/1 616/1/1 622/1/1
f 273/1/2 146/1/2 557/1/2 688/1/2
f 18/1/2 11/1/2 409/1/2 408/1/2
f 361/2/2 367/2/2 762/2/2 749/2/2
f 75/1/1 77/1/1 476/1/1 449/1/1
f 164/2/8 288/2/8 292/2/8 302/2/8
f 266/1/4 222/1/4 621/1/4 620/1/4
f 345/1/2 360/1/2 761/1/2 748/1/2
f 145/1/3 148/1/3 533/1/3 555/1/3
f 3/1/1 10/1/1 401/1/1 400/1/1
f 358/1/2 362/1/2 760/1/2 751/1/2
f 91/1/1 75/1/1 449/1/1 487/1/1
f 146/1/2 156/1/2 559/1/2 557/1/2
f 370/2/8 355/2/8 336/2/8 367/2/8
f 242/1/2 217/1/2 615/1/2 618/1/2
f 186/2/8 160/2/8 339/2/8 340/2/8
f 290/1/3 287/1/3 697/1/3 699/1/3
f 6/1/3 9/1/3 397/1/3 404/1/3
f 357/1/2 356/1/2 742/1/2 746/1/2
f 49/1/4 80/1/4 484/1/4 450/1/4
f 219/1/1 220/1/1 617/1/1 616/1/1
f 286/1/1 289/1/1 698/1/1 696/1/1
f 79/1/4 74/1/4 486/1/4 483/1/4
f 276/1/9 272/1/9 687/1/9 689/1/9
f 2/1/3 8/1/3 403/1/3 396/1/3
f 356/1/2 358/1/2 751/1/2 742/1/2
f 391/2/8 388/2/8 353/2/8 369/2/8
f 73/1/2 76/1/2 454/1/2 485/1/2
f 144/1/3 145/1/3 555/1/3 551/1/3
f 218/1/2 213/1/2 529/1/2 613/1/2
f 150/1/10 275/1/10 650/1/10 556/1/10
f 362/2/8 370/2/8 367/2/8 361/2/8
f 5/1/1 7/1/1 393/1/1 402/1/1
f 335/1/1 359/1/1 755/1/1 730/1/1
f 136/1/3 214/1/3 554/1/3 553/1/3
f 155/1/4 215/1/4 614/1/4 571/1/4
f 353/1/3 355/1/3 732/1/3 758/1/3
f 74/1/4 66/1/4 457/1/4 486/1/4
f 287/1/3 281/1/3 662/1/3 697/1/3
f 8/1/3 6/1/3 404/1/3 403/1/3
f 51/1/2 73/1/2 485/1/2 453/1/2
f 392/2/8 387/2/8 390/2/8 389/2/8
f 319/1/3 144/1/3 551/1/3 550/1/3
f 425/3/8 397/4/8 398/5/8 420/6/8
f 424/7/8 403/8/8 404/9/8 422/10/8
f 395/11/8 396/12/8 403/8/8 424/7/8
f 422/10/8 404/9/8 397/4/8 425/3/8
f 401/13/8 407/14/8 399/2/8 400/15/8
f 408/16/8 409/17/8 412/18/8 410/19/8
f 402/20/8 405/21/8 407/14/8 401/13/8
f 407/14/8 413/22/8 416/23/8 399/2/8
f 406/24/8 410/19/8 414/25/8 405/21/8
f 418/26/8 408/16/8 410/19/8 406/24/8
f 405/21/8 414/25/8 413/22/8 407/14/8
f 393/27/8 406/24/8 405/21/8 402/20/8
f 409/17/8 419/28/8 411/29/8 412/18/8
f 394/1/8 418/26/8 406/24/8 393/27/8
f 432/30/8 426/31/8 421/32/8 431/33/8
f 423/34/8 422/10/8 425/3/8 426/31/8
f 419/28/8 395/11/8 424/7/8 411/29/8
f 411/29/8 424/7/8 422/10/8 423/34/8
f 426/31/8 425/3/8 420/6/8 421/32/8
f 413/22/8 417/35/8 415/36/8 416/23/8
f 399/2/8 416/23/8 427/23/8 428/2/8
f 421/32/8 420/6/8 429/6/8 430/32/8
f 606/1/1 571/1/1 918/1/1 954/1/1
f 525/1/3 467/1/3 814/1/3 872/1/3
f 526/2/2 549/2/2 896/2/2 873/2/2
f 659/1/1 684/1/1 1032/1/1 1007/1/1
f 716/2/3 714/2/3 1062/2/3 1064/2/3
f 475/1/3 469/1/3 816/1/3 822/1/3
f 464/1/1 523/1/1 870/1/1 811/1/1
f 467/1/2 605/1/2 953/1/2 814/1/2
f 164/2/11 302/2/11 349/2/11 351/2/11
f 632/1/1 689/1/1 1037/1/1 980/1/1
f 577/1/1 595/1/1 943/1/1 925/1/1
f 443/1/1 474/1/1 821/1/1 790/1/1
f 524/1/3 515/1/3 862/1/3 871/1/3
f 604/1/4 468/1/4 815/1/4 952/1/4
f 687/1/1 688/1/1 1036/1/1 1035/1/1
f 473/1/3 456/1/3 803/1/3 820/1/3
f 605/1/3 604/1/3 952/1/3 953/1/3
f 753/2/1 715/2/1 1063/2/1 1073/2/1
f 469/1/3 472/1/3 819/1/3 816/1/3
f 516/1/2 436/1/2 783/1/2 863/1/2
f 463/1/4 602/1/4 950/1/4 810/1/4
f 685/1/1 683/1/1 1031/1/1 1033/1/1
f 603/1/2 464/1/2 811/1/2 951/1/2
f 684/1/1 681/1/1 1029/1/1 1032/1/1
f 459/1/2 470/1/2 817/1/2 806/1/2
f 517/1/2 521/1/2 868/1/2 864/1/2
f 602/1/1 603/1/1 951/1/1 950/1/1
f 683/2/2 546/2/2 893/2/2 1031/2/2
f 518/1/2 516/1/2 863/1/2 865/1/2
f 567/1/2 601/1/2 949/1/2 914/1/2
f 465/1/4 445/1/4 792/1/4 812/1/4
f 519/1/2 517/1/2 864/1/2 866/1/2
f 600/1/4 563/1/4 910/1/4 948/1/4
f 681/1/1 660/1/1 1008/1/1 1029/1/1
f 520/1/2 519/1/2 866/1/2 867/1/2
f 601/1/3 600/1/3 948/1/3 949/1/3
f 679/1/3 619/1/3 967/1/3 1027/1/3
f 512/1/2 520/1/2 867/1/2 859/1/2
f 523/1/4 598/1/4 946/1/4 870/1/4
f 460/1/4 465/1/4 812/1/4 807/1/4
f 521/1/2 522/1/2 869/1/2 868/1/2
f 599/1/2 560/1/2 907/1/2 947/1/2
f 522/1/2 518/1/2 865/1/2 869/1/2
f 598/1/1 599/1/1 947/1/1 946/1/1
f 619/1/3 669/1/3 1017/1/3 967/1/3
f 462/1/4 461/1/4 808/1/4 809/1/4
f 508/1/2 509/1/2 856/1/2 855/1/2
f 669/1/3 670/1/3 1018/1/3 1017/1/3
f 448/1/4 460/1/4 807/1/4 795/1/4
f 502/1/2 508/1/2 855/1/2 849/1/2
f 654/1/2 677/1/2 1025/1/2 1002/1/2
f 458/1/1 459/1/1 806/1/1 805/1/1
f 436/1/2 502/1/2 849/1/2 783/1/2
f 597/1/4 569/1/4 916/1/4 945/1/4
f 566/1/2 596/1/2 944/1/2 913/1/2
f 670/1/2 676/1/2 1024/1/2 1018/1/2
f 456/1/3 444/1/3 791/1/3 803/1/3
f 675/1/4 620/1/4 968/1/4 1023/1/4
f 577/2/3 736/2/3 1071/2/3 925/2/3
f 454/1/2 455/1/2 802/1/2 801/1/2
f 580/1/4 597/1/4 945/1/4 928/1/4
f 736/2/2 737/2/2 1072/2/2 1071/2/2
f 452/1/2 453/1/2 800/1/2 799/1/2
f 596/1/2 540/1/2 887/1/2 944/1/2
f 536/1/1 734/1/1 1069/1/1 883/1/1
f 552/1/1 544/1/1 891/1/1 899/1/1
f 677/1/2 672/1/2 1020/1/2 1025/1/2
f 735/1/3 537/1/3 884/1/3 1070/1/3
f 434/1/4 450/1/4 797/1/4 781/1/4
f 558/1/1 552/1/1 899/1/1 905/1/1
f 676/1/2 673/1/2 1021/1/2 1024/1/2
f 734/1/2 735/1/2 1070/1/2 1069/1/2
f 561/1/1 558/1/1 905/1/1 908/1/1
f 671/1/4 675/1/4 1023/1/4 1019/1/4
f 447/1/4 448/1/4 795/1/4 794/1/4
f 445/1/4 446/1/4 793/1/4 792/1/4
f 446/1/1 511/1/1 858/1/1 793/1/1
f 595/1/1 581/1/1 929/1/1 943/1/1
f 444/1/2 428/1/2 31/1/2 791/1/2
f 594/1/3 550/1/3 897/1/3 942/1/3
f 673/1/2 629/1/2 977/1/2 1021/1/2
f 727/2/1 728/2/1 1068/2/1 1067/2/1
f 442/1/1 443/1/1 790/1/1 789/1/1
f 509/1/1 513/1/1 860/1/1 856/1/1
f 529/2/8 570/2/8 612/2/8 613/2/8
f 672/1/2 646/1/2 994/1/2 1020/1/2
f 440/1/2 441/1/2 788/1/2 787/1/2
f 534/1/4 593/1/4 941/1/4 881/1/4
f 628/1/4 671/1/4 1019/1/4 976/1/4
f 439/1/4 433/1/4 780/1/4 786/1/4
f 461/1/4 514/1/4 861/1/4 808/1/4
f 581/1/4 592/1/4 940/1/4 929/1/4
f 437/1/3 438/1/3 785/1/3 784/1/3
f 510/1/3 437/1/3 784/1/3 857/1/3
f 591/1/2 561/1/2 908/1/2 939/1/2
f 515/1/2 482/1/2 829/1/2 862/1/2
f 590/1/2 541/1/2 888/1/2 938/1/2
f 629/1/2 633/1/2 981/1/2 977/1/2
f 642/1/2 639/1/2 987/1/2 990/1/2
f 537/2/2 717/2/2 1066/2/2 884/2/2
f 433/1/4 434/1/4 781/1/4 780/1/4
f 644/1/2 642/1/2 990/1/2 992/1/2
f 718/2/4 594/2/4 942/2/4 1065/2/4
f 593/1/4 589/1/4 937/1/4 941/1/4
f 633/1/2 644/1/2 992/1/2 981/1/2
f 514/1/4 463/1/4 810/1/4 861/1/4
f 592/1/4 588/1/4 936/1/4 940/1/4
f 639/1/2 665/1/2 1013/1/2 987/1/2
f 578/1/2 716/1/2 1064/1/2 926/1/2
f 587/1/2 591/1/2 939/1/2 935/1/2
f 621/1/1 666/1/1 1014/1/1 969/1/1
f 715/1/4 574/1/4 922/1/4 1063/1/4
f 420/6/3 429/6/3 779/6/3 778/6/3
f 470/1/2 466/1/2 813/1/2 817/1/2
f 586/1/2 590/1/2 938/1/2 934/1/2
f 665/1/1 668/1/1 1016/1/1 1013/1/1
f 714/2/3 715/2/3 1063/2/3 1062/2/3
f 428/2/1 399/2/1 24/2/1 31/2/1
f 481/1/4 471/1/4 818/1/4 828/1/4
f 667/1/3 623/1/3 971/1/3 1015/1/3
f 430/32/1 421/32/1 26/32/1 25/32/1
f 537/2/3 594/2/3 942/2/3 884/2/3
f 416/23/3 427/23/3 32/23/3 30/23/3
f 589/1/4 582/1/4 930/1/4 937/1/4
f 543/1/1 536/1/1 883/1/1 890/1/1
f 513/1/1 494/1/1 841/1/1 860/1/1
f 588/1/4 585/1/4 933/1/4 936/1/4
f 668/1/1 663/1/1 1011/1/1 1016/1/1
f 428/2/2 427/23/2 32/23/2 31/2/2
f 492/1/3 512/1/3 859/1/3 839/1/3
f 584/1/2 587/1/2 935/1/2 932/1/2
f 614/1/3 667/1/3 1015/1/3 960/1/3
f 570/1/3 712/1/3 1060/1/3 917/1/3
f 511/1/1 490/1/1 837/1/1 858/1/1
f 583/1/2 586/1/2 934/1/2 931/1/2
f 666/1/1 622/1/1 970/1/1 1014/1/1
f 594/2/8 537/2/8 717/2/8 718/2/8
f 754/2/8 722/2/8 723/2/8 719/2/8
f 770/2/8 727/2/8 728/2/8 745/2/8
f 713/1/1 612/1/1 963/1/1 1061/1/1
f 746/2/8 742/2/8 741/2/8 744/2/8
f 750/2/8 743/2/8 739/2/8 748/2/8
f 759/2/8 746/2/8 744/2/8 729/2/8
f 743/2/8 747/2/8 738/2/8 739/2/8
f 764/2/8 750/2/8 748/2/8 761/2/8
f 742/2/8 751/2/8 740/2/8 741/2/8
f 765/2/8 720/2/8 752/2/8 766/2/8
f 765/2/8 754/2/8 719/2/8 720/2/8
f 489/1/3 510/1/3 857/1/3 836/1/3
f 712/1/4 713/1/4 1061/1/4 1060/1/4
f 767/2/8 758/2/8 732/2/8 763/2/8
f 768/2/8 764/2/8 761/2/8 724/2/8
f 751/2/8 760/2/8 749/2/8 740/2/8
f 726/2/8 768/2/8 724/2/8 725/2/8
f 723/2/8 722/2/8 768/2/8 726/2/8
f 771/2/8 716/2/8 727/2/8 770/2/8
f 756/2/8 757/2/8 759/2/8 755/2/8
f 774/2/8 773/2/8 757/2/8 756/2/8
f 715/2/8 714/2/8 772/37/8 721/37/8
f 715/2/8 721/37/8 731/37/8 753/2/8
f 755/2/8 759/2/8 729/2/8 730/2/8
f 714/2/8 716/2/8 771/2/8 772/37/8
f 747/2/8 770/2/8 745/2/8 738/2/8
f 766/2/8 752/2/8 775/2/8 769/2/8
f 37/1/4 36/1/4 430/1/4 429/1/4
f 317/1/4 318/1/4 713/1/4 712/1/4
f 256/1/1 246/1/1 622/1/1 666/1/1
f 175/1/4 172/1/4 585/1/4 588/1/4
f 348/1/3 388/1/3 775/1/3 752/1/3
f 14/1/3 35/1/3 427/1/3 416/1/3
f 318/1/1 216/1/1 612/1/1 713/1/1
f 215/1/3 247/1/3 667/1/3 614/1/3
f 180/1/4 176/1/4 582/1/4 589/1/4
f 391/1/1 368/1/1 766/1/1 769/1/1
f 36/1/1 20/1/1 421/1/1 430/1/1
f 205/1/3 317/1/3 712/1/3 570/1/3
f 248/1/1 244/1/1 663/1/1 668/1/1
f 107/1/4 70/1/4 471/1/4 481/1/4
f 389/2/4 390/2/4 777/2/4 776/2/4
f 34/1/1 12/1/1 399/1/1 428/1/1
f 59/1/2 108/1/2 466/1/2 470/1/2
f 387/2/2 392/2/2 773/2/2 774/2/2
f 29/1/3 37/1/3 429/1/3 420/1/3
f 321/1/1 181/1/1 536/1/1 543/1/1
f 173/1/2 177/1/2 590/1/2 586/1/2
f 388/2/4 391/2/4 769/2/4 775/2/4
f 20/1/4 39/1/4 431/1/4 421/1/4
f 247/1/3 249/1/3 623/1/3 667/1/3
f 174/1/2 178/1/2 591/1/2 587/1/2
f 109/1/4 68/1/4 463/1/4 514/1/4
f 390/2/3 387/2/3 774/2/3 777/2/3
f 40/1/2 23/1/2 426/1/2 432/1/2
f 255/1/1 248/1/1 668/1/1 665/1/1
f 179/1/4 175/1/4 588/1/4 592/1/4
f 39/1/1 40/1/1 432/1/1 431/1/1
f 222/1/1 256/1/1 666/1/1 621/1/1
f 188/1/4 180/1/4 589/1/4 593/1/4
f 42/1/4 41/1/4 434/1/4 433/1/4
f 252/1/2 255/1/2 665/1/2 639/1/2
f 251/1/2 254/1/2 644/1/2 633/1/2
f 110/1/2 112/1/2 482/1/2 515/1/2
f 254/1/2 253/1/2 642/1/2 644/1/2
f 177/1/2 182/1/2 541/1/2 590/1/2
f 105/1/3 118/1/3 437/1/3 510/1/3
f 118/1/3 44/1/3 438/1/3 437/1/3
f 253/1/2 252/1/2 639/1/2 642/1/2
f 178/1/2 185/1/2 561/1/2 591/1/2
f 113/1/4 109/1/4 514/1/4 461/1/4
f 94/1/4 42/1/4 433/1/4 439/1/4
f 327/1/4 160/1/4 574/1/4 715/1/4
f 250/1/2 251/1/2 633/1/2 629/1/2
f 187/1/4 179/1/4 592/1/4 581/1/4
f 100/1/2 43/1/2 441/1/2 440/1/2
f 167/1/2 328/1/2 716/1/2 578/1/2
f 137/1/4 188/1/4 593/1/4 534/1/4
f 121/1/1 116/1/1 513/1/1 509/1/1
f 88/1/1 45/1/1 443/1/1 442/1/1
f 329/1/3 330/1/3 718/1/3 717/1/3
f 48/1/2 34/1/2 428/1/2 444/1/2
f 330/1/4 322/1/4 594/1/4 718/1/4
f 224/1/4 257/1/4 671/1/4 628/1/4
f 322/1/3 319/1/3 550/1/3 594/1/3
f 46/1/1 123/1/1 511/1/1 446/1/1
f 57/1/4 46/1/4 446/1/4 445/1/4
f 138/1/2 329/1/2 717/1/2 537/1/2
f 264/1/2 259/1/2 646/1/2 672/1/2
f 350/1/1 187/1/1 581/1/1 595/1/1
f 72/1/4 47/1/4 448/1/4 447/1/4
f 352/1/3 331/1/3 720/1/3 719/1/3
f 260/1/2 250/1/2 629/1/2 673/1/2
f 185/1/1 184/1/1 558/1/1 561/1/1
f 41/1/4 49/1/4 450/1/4 434/1/4
f 184/1/1 183/1/1 552/1/1 558/1/1
f 364/1/2 334/1/2 725/1/2 724/1/2
f 257/1/4 261/1/4 675/1/4 671/1/4
f 183/1/1 320/1/1 544/1/1 552/1/1
f 115/1/2 51/1/2 453/1/2 452/1/2
f 371/1/3 332/1/3 723/1/3 726/1/3
f 262/1/2 260/1/2 673/1/2 676/1/2
f 193/1/2 189/1/2 540/1/2 596/1/2
f 76/1/2 52/1/2 455/1/2 454/1/2
f 372/1/1 333/1/1 728/1/1 727/1/1
f 270/1/2 264/1/2 672/1/2 677/1/2
f 190/1/4 194/1/4 597/1/4 580/1/4
f 60/1/3 48/1/3 444/1/3 456/1/3
f 379/1/4 335/1/4 730/1/4 729/1/4
f 378/1/3 347/1/3 731/1/3 721/1/3
f 152/1/2 193/1/2 596/1/2 566/1/2
f 117/1/2 119/1/2 502/1/2 436/1/2
f 67/1/1 50/1/1 459/1/1 458/1/1
f 336/2/1 355/2/1 732/2/1 733/2/1
f 261/1/4 266/1/4 620/1/4 675/1/4
f 194/1/4 165/1/4 569/1/4 597/1/4
f 119/1/2 120/1/2 508/1/2 502/1/2
f 47/1/4 53/1/4 460/1/4 448/1/4
f 338/1/2 337/1/2 735/1/2 734/1/2
f 268/1/2 262/1/2 676/1/2 670/1/2
f 120/1/2 121/1/2 509/1/2 508/1/2
f 114/1/4 113/1/4 461/1/4 462/1/4
f 337/1/3 138/1/3 537/1/3 735/1/3
f 130/1/2 125/1/2 518/1/2 522/1/2
f 181/1/1 338/1/1 734/1/1 536/1/1
f 233/1/2 270/1/2 677/1/2 654/1/2
f 195/1/1 196/1/1 599/1/1 598/1/1
f 129/1/2 130/1/2 522/1/2 521/1/2
f 53/1/4 55/1/4 465/1/4 460/1/4
f 340/2/2 339/2/2 737/2/2 736/2/2
f 267/1/3 268/1/3 670/1/3 669/1/3
f 196/1/2 149/1/2 560/1/2 599/1/2
f 128/1/2 127/1/2 520/1/2 512/1/2
f 186/2/3 340/2/3 736/2/3 577/2/3
f 265/1/3 267/1/3 669/1/3 619/1/3
f 131/1/4 195/1/4 598/1/4 523/1/4
f 127/1/2 126/1/2 519/1/2 520/1/2
f 198/1/3 197/1/3 600/1/3 601/1/3
f 126/1/2 124/1/2 517/1/2 519/1/2
f 55/1/4 57/1/4 445/1/4 465/1/4
f 344/1/2 341/1/2 739/1/2 738/1/2
f 197/1/4 191/1/4 563/1/4 600/1/4
f 125/1/2 122/1/2 516/1/2 518/1/2
f 346/1/4 342/1/4 741/1/4 740/1/4
f 269/1/3 265/1/3 619/1/3 679/1/3
f 192/1/2 198/1/2 601/1/2 567/1/2
f 124/1/2 129/1/2 521/1/2 517/1/2
f 50/1/2 59/1/2 470/1/2 459/1/2
f 274/1/1 271/1/1 660/1/1 681/1/1
f 200/1/1 199/1/1 603/1/1 602/1/1
f 199/1/2 54/1/2 464/1/2 603/1/2
f 122/1/2 117/1/2 436/1/2 516/1/2
f 58/1/3 90/1/3 472/1/3 469/1/3
f 342/1/4 343/1/4 744/1/4 741/1/4
f 288/2/2 164/2/2 546/2/2 683/2/2
f 68/1/4 200/1/4 602/1/4 463/1/4
f 65/1/3 60/1/3 456/1/3 473/1/3
f 381/1/2 344/1/2 738/1/2 745/1/2
f 277/1/1 274/1/1 681/1/1 684/1/1
f 201/1/3 202/1/3 604/1/3 605/1/3
f 45/1/1 61/1/1 474/1/1 443/1/1
f 291/1/1 288/1/1 683/1/1 685/1/1
f 202/1/4 69/1/4 468/1/4 604/1/4
f 134/1/3 110/1/3 515/1/3 524/1/3
f 62/1/3 58/1/3 469/1/3 475/1/3
f 56/1/2 201/1/2 605/1/2 467/1/2
f 54/1/1 131/1/1 523/1/1 464/1/1
f 341/1/2 345/1/2 748/1/2 739/1/2
f 272/1/1 273/1/1 688/1/1 687/1/1
f 203/2/2 204/2/2 549/2/2 526/2/2
f 211/1/3 56/1/3 467/1/3 525/1/3
f 361/1/4 346/1/4 740/1/4 749/1/4
f 225/1/1 276/1/1 689/1/1 632/1/1
f 208/1/1 155/1/1 571/1/1 606/1/1
f 133/2/3 203/2/3 526/2/3 527/2/3
f 61/1/1 63/1/1 477/1/1 474/1/1
f 237/1/1 277/1/1 684/1/1 659/1/1
f 214/1/3 206/1/3 607/1/3 554/1/3
f 64/1/3 62/1/3 475/1/3 478/1/3
f 206/1/4 205/1/4 570/1/4 607/1/4
f 213/1/1 143/1/1 530/1/1 529/1/1
f 71/1/3 65/1/3 473/1/3 479/1/3
f 158/1/3 207/1/3 608/1/3 572/1/3
f 154/1/4 135/1/4 532/1/4 531/1/4
f 331/1/3 348/1/3 752/1/3 720/1/3
f 279/1/2 278/1/2 657/1/2 691/1/2
f 212/1/1 208/1/1 606/1/1 609/1/1
f 148/1/3 137/1/3 534/1/3 533/1/3
f 382/1/1 327/1/1 715/1/1 753/1/1
f 169/1/4 134/1/4 524/1/4 535/1/4
f 63/1/1 67/1/1 458/1/1 477/1/1
f 285/1/2 279/1/2 691/1/2 693/1/2
f 70/1/3 64/1/3 478/1/3 471/1/3
f 186/1/1 350/1/1 595/1/1 577/1/1
f 210/1/3 158/1/3 572/1/3 611/1/3
f 139/1/2 140/1/2 539/1/2 538/1/2
f 52/1/3 71/1/3 479/1/3 455/1/3
f 238/1/2 285/1/2 693/1/2 656/1/2
f 209/1/2 210/1/2 611/1/2 610/1/2
f 189/1/2 139/1/2 538/1/2 540/1/2
f 69/1/4 107/1/4 481/1/4 468/1/4
f 332/1/3 352/1/3 719/1/3 723/1/3
f 283/1/3 284/1/3 690/1/3 686/1/3
f 207/1/3 211/1/3 525/1/3 608/1/3
f 182/1/2 142/1/2 542/1/2 541/1/2
f 112/1/2 115/1/2 452/1/2 482/1/2
f 7/1/1 1/1/1 394/1/1 393/1/1
f 282/1/3 283/1/3 686/1/3 682/1/3
f 108/1/1 212/1/1 609/1/1 466/1/1
f 320/1/1 321/1/1 543/1/1 544/1/1
f 66/1/4 114/1/4 462/1/4 457/1/4
f 28/1/2 2/1/2 396/1/2 395/1/2
f 281/1/3 282/1/3 682/1/3 662/1/3
f 9/1/3 4/1/3 398/1/3 397/1/3
f 164/1/1 141/1/1 547/1/1 546/1/1
f 12/1/4 3/1/4 400/1/4 399/1/4
f 284/1/3 280/1/3 658/1/3 690/1/3
f 216/1/1 218/1/1 613/1/1 612/1/1
f 204/2/1 132/2/1 548/2/1 549/2/1
f 80/1/4 72/1/4 447/1/4 484/1/4
f 359/1/1 354/1/1 756/1/1 755/1/1
f 10/1/1 5/1/1 402/1/1 401/1/1
f 241/1/1 286/1/1 696/1/1 661/1/1
f 863/2/8 783/23/8 780/23/8 781/2/8
f 847/23/8 787/23/8 788/23/8 844/23/8
f 859/2/8 792/2/8 793/2/8 858/2/8
f 868/2/8 794/2/8 795/2/8 864/2/8
f 863/2/8 781/2/8 797/2/8 865/2/8
f 833/2/8 804/2/8 800/2/8 832/2/8
f 818/2/8 805/2/8 806/2/8 817/2/8
f 861/2/8 810/2/8 811/2/8 862/2/8
f 864/2/8 795/2/8 807/2/8 866/2/8
f 804/2/8 809/2/8 799/2/8 800/2/8
f 866/2/8 807/2/8 812/2/8 867/2/8
f 828/2/8 818/2/8 817/2/8 813/2/8
f 867/2/8 812/2/8 792/2/8 859/2/8
f 816/2/8 790/2/8 821/2/8 822/2/8
f 822/2/8 821/2/8 824/2/8 825/2/8
f 825/2/8 824/2/8 805/2/8 818/2/8
f 830/2/8 833/2/8 832/2/8 801/2/8
f 869/2/8 831/2/8 794/2/8 868/2/8
f 865/2/8 797/2/8 831/2/8 869/2/8
f 826/2/8 830/2/8 801/2/8 802/2/8
f 791/2/8 796/2/8 823/2/8 803/2/8
f 803/2/8 823/2/8 827/2/8 820/2/8
f 820/2/8 827/2/8 830/2/8 826/2/8
f 843/2/8 840/2/8 838/2/8 842/2/8
f 860/23/8 841/23/8 836/23/8 857/23/8
f 819/2/8 843/2/8 842/2/8 789/2/8
f 841/23/8 845/23/8 835/23/8 836/23/8
f 791/2/8 798/2/8 834/2/8 796/2/8
f 31/2/8 782/2/8 798/2/8 791/2/8
f 816/2/8 819/2/8 789/2/8 790/2/8
f 31/2/8 32/23/8 846/23/8 782/2/8
f 845/23/8 847/23/8 844/23/8 835/23/8
f 851/23/8 850/23/8 852/23/8 853/23/8
f 853/23/8 852/23/8 787/23/8 847/23/8
f 856/23/8 860/23/8 857/23/8 784/23/8
f 840/2/8 839/2/8 837/2/8 838/2/8
f 854/23/8 856/23/8 784/23/8 785/23/8
f 780/23/8 783/23/8 849/23/8 786/23/8
f 786/23/8 849/23/8 855/23/8 848/23/8
f 848/23/8 855/23/8 856/23/8 854/23/8
f 815/2/8 828/2/8 813/2/8 814/2/8
f 808/2/8 861/2/8 862/2/8 829/2/8
f 839/2/8 859/2/8 858/2/8 837/2/8
f 809/2/8 808/2/8 829/2/8 799/2/8
f 862/2/8 811/2/8 870/2/8 871/2/8
f 909/2/8 878/2/8 879/2/8 903/2/8
f 890/2/8 883/2/8 884/2/8 942/2/8
f 933/2/8 892/2/8 886/2/8 931/2/8
f 920/2/8 893/2/8 894/2/8 912/2/8
f 892/2/8 927/2/8 885/2/8 886/2/8
f 905/2/8 899/2/8 898/2/8 902/2/8
f 955/2/8 917/2/8 876/2/8 901/2/8
f 908/2/8 905/2/8 902/2/8 880/2/8
f 900/2/8 877/2/8 873/2/8 896/2/8
f 941/2/8 908/2/8 880/2/8 881/2/8
f 871/2/8 870/2/8 907/2/8 875/2/8
f 906/2/8 909/2/8 903/2/8 904/2/8
f 945/2/8 916/2/8 913/2/8 944/2/8
f 914/2/8 910/2/8 911/2/8 915/2/8
f 916/2/8 920/2/8 912/2/8 913/2/8
f 915/2/8 911/2/8 878/2/8 909/2/8
f 901/2/8 876/2/8 877/2/8 900/2/8
f 924/2/8 923/2/8 893/2/8 920/2/8
f 871/2/8 875/2/8 932/2/8 882/2/8
f 936/2/8 933/2/8 931/2/8 934/2/8
f 940/2/8 936/2/8 934/2/8 938/2/8
f 882/2/8 932/2/8 935/2/8 930/2/8
f 929/2/8 940/2/8 938/2/8 888/2/8
f 930/2/8 935/2/8 939/2/8 937/2/8
f 926/2/8 929/2/8 888/2/8 889/2/8
f 899/2/8 891/2/8 897/2/8 898/2/8
f 921/2/8 943/2/8 929/2/8 926/2/8
f 937/2/8 939/2/8 908/2/8 941/2/8
f 927/2/8 928/2/8 887/2/8 885/2/8
f 928/2/8 945/2/8 944/2/8 887/2/8
f 907/2/8 870/2/8 946/2/8 947/2/8
f 910/2/8 914/2/8 949/2/8 948/2/8
f 811/2/8 810/2/8 950/2/8 951/2/8
f 815/2/8 814/2/8 953/2/8 952/2/8
f 956/2/8 954/2/8 918/2/8 919/2/8
f 872/2/8 957/2/8 954/2/8 956/2/8
f 919/2/8 918/2/8 958/2/8 959/2/8
f 814/2/8 813/2/8 957/2/8 872/2/8
f 958/2/8 918/2/8 960/2/8 961/2/8
f 1027/2/8 967/2/8 964/2/8 965/2/8
f 1013/2/8 971/2/8 972/2/8 984/2/8
f 1021/2/8 977/2/8 976/2/8 1019/2/8
f 993/2/8 979/2/8 980/2/8 989/2/8
f 977/2/8 981/2/8 975/2/8 976/2/8
f 1012/2/8 986/2/8 983/2/8 973/2/8
f 990/2/8 987/2/8 985/2/8 988/2/8
f 992/2/8 990/2/8 988/2/8 978/2/8
f 986/2/8 991/2/8 982/2/8 983/2/8
f 981/2/8 992/2/8 978/2/8 975/2/8
f 991/2/8 993/2/8 989/2/8 982/2/8
f 1048/2/8 999/2/8 996/2/8 997/2/8
f 999/2/8 1000/2/8 995/2/8 996/2/8
f 1028/2/8 1001/2/8 1002/2/8 1025/2/8
f 1038/2/8 1006/2/8 1007/2/8 1032/2/8
f 1045/2/8 1010/2/8 1009/2/8 1044/2/8
f 961/2/8 960/2/8 1011/2/8 966/2/8
f 1054/2/8 1012/2/8 973/2/8 974/2/8
f 987/2/8 1013/2/8 984/2/8 985/2/8
f 1011/2/8 960/2/8 1015/2/8 1016/2/8
f 1016/2/8 1015/2/8 971/2/8 1013/2/8
f 1000/2/8 1022/2/8 994/2/8 995/2/8
f 1024/2/8 1021/2/8 1019/2/8 1023/2/8
f 1049/2/8 1051/2/8 1012/2/8 1054/2/8
f 1018/2/8 1024/2/8 1023/2/8 968/2/8
f 1022/2/8 1026/2/8 1020/2/8 994/2/8
f 970/2/8 1017/2/8 1018/2/8 1014/2/8
f 964/2/8 967/2/8 1017/2/8 970/2/8
f 1014/2/8 1018/2/8 968/2/8 969/2/8
f 1026/2/8 1028/2/8 1025/2/8 1020/2/8
f 1010/2/8 1030/2/8 1008/2/8 1009/2/8
f 893/2/8 923/2/8 1033/2/8 1031/2/8
f 1030/2/8 1034/2/8 1029/2/8 1008/2/8
f 989/2/8 980/2/8 1037/2/8 998/2/8
f 1034/2/8 1038/2/8 1032/2/8 1029/2/8
f 1047/2/8 1045/2/8 1044/2/8 1046/2/8
f 1043/2/8 1047/2/8 1046/2/8 1003/2/8
f 1037/2/8 1035/2/8 903/2/8 998/2/8
f 1039/2/8 1042/2/8 1043/2/8 1041/2/8
f 1005/2/8 1040/2/8 1042/2/8 1039/2/8
f 1002/2/8 1001/2/8 1040/2/8 1005/2/8
f 1041/2/8 1043/2/8 1003/2/8 1004/2/8
f 904/2/8 903/2/8 1035/2/8 1036/2/8
f 1057/2/8 1052/2/8 1053/2/8 1050/2/8
f 1050/2/8 1053/2/8 1051/2/8 1049/2/8
f 1027/2/8 965/2/8 1055/2/8 1056/2/8
f 1006/2/8 1055/2/8 965/2/8 1007/2/8
f 958/2/8 961/2/8 1058/2/8 1059/2/8
f 963/2/8 917/2/8 1060/2/8 1061/2/8
f 891/2/8 890/2/8 942/2/8 897/2/8
f 921/2/8 926/2/8 1064/2/8 1062/2/8
f 884/2/8 883/2/8 1069/2/8 1070/2/8
f 922/2/8 921/2/8 1062/2/8 1063/2/8
f 922/2/8 925/2/8 943/2/8 921/2/8
f 527/2/3 526/2/3 873/2/3 874/2/3
f 554/1/3 607/1/3 955/1/3 901/1/3
f 474/1/1 477/1/1 824/1/1 821/1/1
f 691/1/2 657/1/2 1005/1/2 1039/1/2
f 607/1/4 570/1/4 917/1/4 955/1/4
f 529/1/1 530/1/1 877/1/1 876/1/1
f 478/1/3 475/1/3 822/1/3 825/1/3
f 572/1/3 608/1/3 956/1/3 919/1/3
f 531/1/4 532/1/4 879/1/4 878/1/4
f 479/1/3 473/1/3 820/1/3 826/1/3
f 755/2/1 756/2/1 1075/2/1 1074/2/1
f 693/1/2 691/1/2 1039/1/2 1041/1/2
f 609/1/1 606/1/1 954/1/1 957/1/1
f 533/1/3 534/1/3 881/1/3 880/1/3
f 535/1/4 524/1/4 871/1/4 882/1/4
f 656/1/2 693/1/2 1041/1/2 1004/1/2
f 477/1/1 458/1/1 805/1/1 824/1/1
f 730/2/1 755/2/1 1074/2/1 1076/2/1
f 686/1/3 690/1/3 1038/1/3 1034/1/3
f 611/1/3 572/1/3 919/1/3 959/1/3
f 538/1/2 539/1/2 886/1/2 885/1/2
f 471/1/3 478/1/3 825/1/3 818/1/3
f 682/1/3 686/1/3 1034/1/3 1030/1/3
f 610/1/2 611/1/2 959/1/2 958/1/2
f 540/1/2 538/1/2 885/1/2 887/1/2
f 455/1/3 479/1/3 826/1/3 802/1/3
f 662/1/3 682/1/3 1030/1/3 1010/1/3
f 608/1/3 525/1/3 872/1/3 956/1/3
f 541/1/2 542/1/2 889/1/2 888/1/2
f 468/1/4 481/1/4 828/1/4 815/1/4
f 466/1/1 609/1/1 957/1/1 813/1/1
f 544/1/1 543/1/1 890/1/1 891/1/1
f 482/1/2 452/1/2 799/1/2 829/1/2
f 690/1/3 658/1/3 1006/1/3 1038/1/3
f 457/1/4 462/1/4 809/1/4 804/1/4
f 661/1/1 696/1/1 1044/1/1 1009/1/1
f 546/1/1 547/1/1 894/1/1 893/1/1
f 697/1/3 662/1/3 1010/1/3 1045/1/3
f 549/2/1 548/2/1 895/2/1 896/2/1
f 550/1/3 551/1/3 898/1/3 897/1/3
f 484/1/4 447/1/4 794/1/4 831/1/4
f 556/1/10 650/1/10 998/1/10 903/1/10
f 453/1/2 485/1/2 832/1/2 800/1/2
f 689/1/9 687/1/9 1035/1/9 1037/1/9
f 571/1/4 614/1/4 960/1/4 918/1/4
f 553/1/3 554/1/3 901/1/3 900/1/3
f 486/1/4 457/1/4 804/1/4 833/1/4
f 696/1/1 698/1/1 1046/1/1 1044/1/1
f 613/2/2 529/2/2 876/2/2 962/2/2
f 551/1/3 555/1/3 902/1/3 898/1/3
f 699/1/3 697/1/3 1045/1/3 1047/1/3
f 612/2/2 570/2/2 917/2/2 963/2/2
f 485/1/2 454/1/2 801/1/2 832/1/2
f 616/1/1 617/1/1 965/1/1 964/1/1
f 483/1/4 486/1/4 833/1/4 830/1/4
f 618/1/2 615/1/2 961/1/2 966/1/2
f 557/1/2 559/1/2 906/1/2 904/1/2
f 450/1/4 484/1/4 831/1/4 797/1/4
f 688/1/2 557/1/2 904/1/2 1036/1/2
f 555/1/3 533/1/3 880/1/3 902/1/3
f 487/1/1 449/1/1 796/1/1 834/1/1
f 575/1/4 685/1/4 1033/1/4 923/1/4
f 620/1/4 621/1/4 969/1/4 968/1/4
f 698/1/1 655/1/1 1003/1/1 1046/1/1
f 622/1/1 616/1/1 964/1/1 970/1/1
f 532/1/1 556/1/1 903/1/1 879/1/1
f 449/1/1 476/1/1 823/1/1 796/1/1
f 695/1/3 699/1/3 1047/1/3 1043/1/3
f 623/1/3 624/1/3 972/1/3 971/1/3
f 476/1/1 480/1/1 827/1/1 823/1/1
f 649/1/3 700/1/3 1048/1/3 997/1/3
f 625/1/2 626/1/2 974/1/2 973/1/2
f 560/1/2 528/1/2 875/1/2 907/1/2
f 480/1/1 483/1/1 830/1/1 827/1/1
f 694/1/4 695/1/4 1043/1/4 1042/1/4
f 627/1/4 628/1/4 976/1/4 975/1/4
f 488/1/3 489/1/3 836/1/3 835/1/3
f 692/1/4 694/1/4 1042/1/4 1040/1/4
f 563/1/4 564/1/4 911/1/4 910/1/4
f 490/1/1 491/1/1 838/1/1 837/1/1
f 653/1/4 692/1/4 1040/1/4 1001/1/4
f 630/1/4 627/1/4 975/1/4 978/1/4
f 565/1/2 566/1/2 913/1/2 912/1/2
f 493/1/3 492/1/3 839/1/3 840/1/3
f 631/1/1 632/1/1 980/1/1 979/1/1
f 568/1/2 567/1/2 914/1/2 915/1/2
f 716/2/1 727/2/1 1067/2/1 1064/2/1
f 678/1/4 680/1/4 1028/1/4 1026/1/4
f 674/1/4 678/1/4 1026/1/4 1022/1/4
f 634/1/2 635/1/2 983/1/2 982/1/2
f 491/1/1 495/1/1 842/1/1 838/1/1
f 652/1/4 674/1/4 1022/1/4 1000/1/4
f 636/1/4 637/1/4 985/1/4 984/1/4
f 564/1/4 531/1/4 878/1/4 911/1/4
f 496/1/3 493/1/3 840/1/3 843/1/3
f 680/1/4 653/1/4 1001/1/4 1028/1/4
f 562/1/2 568/1/2 915/1/2 909/1/2
f 497/1/3 488/1/3 835/1/3 844/1/3
f 651/1/4 652/1/4 1000/1/4 999/1/4
f 570/2/1 529/2/1 876/2/1 917/2/1
f 700/2/4 651/2/4 999/2/4 1048/2/4
f 637/1/4 640/1/4 988/1/4 985/1/4
f 547/1/2 565/1/2 912/1/2 894/1/2
f 701/1/3 702/1/3 1050/1/3 1049/1/3
f 641/1/2 634/1/2 982/1/2 989/1/2
f 559/1/3 562/1/3 909/1/3 906/1/3
f 495/1/1 442/1/1 789/1/1 842/1/1
f 530/1/1 526/1/1 873/1/1 877/1/1
f 472/1/3 496/1/3 843/1/3 819/1/3
f 704/1/1 705/1/1 1053/1/1 1052/1/1
f 427/1/3 499/1/3 846/1/3 32/1/3
f 706/1/3 701/1/3 1049/1/3 1054/1/3
f 640/1/4 630/1/4 978/1/4 988/1/4
f 441/1/3 497/1/3 844/1/3 788/1/3
f 705/1/1 703/1/1 1051/1/1 1053/1/1
f 451/1/4 487/1/4 834/1/4 798/1/4
f 435/1/4 451/1/4 798/1/4 782/1/4
f 708/1/3 679/1/3 1027/1/3 1056/1/3
f 646/1/2 647/1/2 995/1/2 994/1/2
f 549/1/3 553/1/3 900/1/3 896/1/3
f 499/1/4 435/1/4 782/1/4 846/1/4
f 707/1/2 708/1/2 1056/1/2 1055/1/2
f 647/1/2 648/1/2 996/1/2 995/1/2
f 576/1/4 575/1/4 923/1/4 924/1/4
f 658/1/7 707/1/7 1055/1/7 1006/1/7
f 648/1/2 649/1/2 997/1/2 996/1/2
f 574/2/4 577/2/4 925/2/4 922/2/4
f 501/1/4 439/1/4 786/1/4 848/1/4
f 617/1/6 659/1/6 1007/1/6 965/1/6
f 650/1/3 641/1/3 989/1/3 998/1/3
f 703/1/1 664/1/1 1012/1/1 1051/1/1
f 573/1/3 576/1/3 924/1/3 920/1/3
f 504/1/1 503/1/1 850/1/1 851/1/1
f 626/1/3 706/1/3 1054/1/3 974/1/3
f 542/1/3 578/1/3 926/1/3 889/1/3
f 503/1/2 505/1/2 852/1/2 850/1/2
f 506/1/4 504/1/4 851/1/4 853/1/4
f 643/1/4 645/1/4 993/1/4 991/1/4
f 655/1/1 656/1/1 1004/1/1 1003/1/1
f 569/1/4 573/1/4 920/1/4 916/1/4
f 507/1/4 501/1/4 848/1/4 854/1/4
f 638/1/4 643/1/4 991/1/4 986/1/4
f 657/1/2 654/1/2 1002/1/2 1005/1/2
f 579/1/4 580/1/4 928/1/4 927/1/4
f 756/2/1 774/2/1 1077/2/1 1075/2/1
f 664/1/4 638/1/4 986/1/4 1012/1/4
f 545/1/4 579/1/4 927/1/4 892/1/4
f 645/1/4 631/1/4 979/1/4 993/1/4
f 660/1/1 661/1/1 1009/1/1 1008/1/1
f 505/1/2 440/1/2 787/1/2 852/1/2
f 651/2/5 683/2/5 1031/2/5 999/2/5
f 500/1/4 506/1/4 853/1/4 847/1/4
f 702/1/3 709/1/3 1057/1/3 1050/1/3
f 635/1/2 625/1/2 973/1/2 983/1/2
f 582/1/4 535/1/4 882/1/4 930/1/4
f 438/1/4 507/1/4 854/1/4 785/1/4
f 709/1/4 704/1/4 1052/1/4 1057/1/4
f 539/1/2 583/1/2 931/1/2 886/1/2
f 498/1/1 500/1/1 847/1/1 845/1/1
f 710/1/2 711/1/2 1059/1/2 1058/1/2
f 624/1/4 636/1/4 984/1/4 972/1/4
f 528/1/2 584/1/2 932/1/2 875/1/2
f 494/1/1 498/1/1 845/1/1 841/1/1
f 777/2/3 774/2/3 1077/2/3 1078/2/3
f 711/1/3 610/1/3 958/1/3 1059/1/3
f 663/1/1 618/1/1 966/1/1 1011/1/1
f 585/1/4 545/1/4 892/1/4 933/1/4
f 615/1/1 710/1/1 1058/1/1 961/1/1
l 220 239
l 237 240
l 321 326
l 181 323
l 138 325
l 322 324
